<?xml version="1.0" encoding="UTF-8"?>
<!DOCTYPE svg PUBLIC "-//W3C//DTD SVG 1.1//EN" "http://www.w3.org/Graphics/SVG/1.1/DTD/svg11.dtd">
<svg xmlns="http://www.w3.org/2000/svg" version="1.1" width="42px" height="42px" style="shape-rendering:geometricPrecision; text-rendering:geometricPrecision; image-rendering:optimizeQuality; fill-rule:evenodd; clip-rule:evenodd" xmlns:xlink="http://www.w3.org/1999/xlink">
<g><path style="opacity:0.929" fill="#d9e8b8" d="M 4.5,-0.5 C 7.83333,-0.5 11.1667,-0.5 14.5,-0.5C 14.5,-0.166667 14.5,0.166667 14.5,0.5C 12.3685,3.4461 11.3685,6.77944 11.5,10.5C 11.7828,11.2891 12.2828,11.9558 13,12.5C 15.9403,12.1537 18.4403,11.1537 20.5,9.5C 21.1174,9.38929 21.6174,9.05596 22,8.5C 22.0781,6.34348 22.2448,4.34348 22.5,2.5C 23.6964,3.55939 24.363,4.89273 24.5,6.5C 23.1555,11.0317 21.3221,15.365 19,19.5C 15.8485,21.6515 12.6818,23.6515 9.5,25.5C 10,25.8333 10.5,26.1667 11,26.5C 12.582,24.9712 14.4153,24.4712 16.5,25C 14.0177,29.3065 11.0177,33.1399 7.5,36.5C -0.395757,27.7256 -1.56242,18.0589 4,7.5C 6.55902,4.46856 9.72568,2.30189 13.5,1C 10.3054,0.819481 7.30536,0.319481 4.5,-0.5 Z"/></g>
<g><path style="opacity:1" fill="#475634" d="M 15.5,-0.5 C 16.8333,-0.5 18.1667,-0.5 19.5,-0.5C 19.7373,3.28865 20.4039,3.28865 21.5,-0.5C 26.5,-0.5 31.5,-0.5 36.5,-0.5C 33.5,0.166667 30.5,0.833333 27.5,1.5C 27.558,7.82603 25.8913,13.6594 22.5,19C 24.1626,19.2649 25.6626,18.7649 27,17.5C 28.1965,14.9109 29.1965,12.2442 30,9.5C 30.9653,7.73966 32.132,7.40632 33.5,8.5C 32.0235,11.4149 31.1902,14.4149 31,17.5C 31.7175,16.5494 32.5509,16.3828 33.5,17C 28.6673,19.132 26.1673,22.9654 26,28.5C 24.5825,31.8234 22.4158,33.4901 19.5,33.5C 21.9682,29.9429 23.9682,26.1096 25.5,22C 24.1667,21.3333 22.8333,21.3333 21.5,22C 18.1922,27.4594 14.5256,32.6261 10.5,37.5C 8.86076,38.4725 7.52743,39.8058 6.5,41.5C 5.5,41.5 4.5,41.5 3.5,41.5C 4.83333,39.8333 6.16667,38.1667 7.5,36.5C 11.0177,33.1399 14.0177,29.3065 16.5,25C 14.4153,24.4712 12.582,24.9712 11,26.5C 10.5,26.1667 10,25.8333 9.5,25.5C 12.6818,23.6515 15.8485,21.6515 19,19.5C 21.3221,15.365 23.1555,11.0317 24.5,6.5C 24.363,4.89273 23.6964,3.55939 22.5,2.5C 22.2448,4.34348 22.0781,6.34348 22,8.5C 21.6174,9.05596 21.1174,9.38929 20.5,9.5C 17.4299,9.36772 14.4299,9.70105 11.5,10.5C 11.3685,6.77944 12.3685,3.4461 14.5,0.5C 15.1667,0.5 15.5,0.166667 15.5,-0.5 Z"/></g>
<g><path style="opacity:0.976" fill="#d9e4c1" d="M 19.5,-0.5 C 20.1667,-0.5 20.8333,-0.5 21.5,-0.5C 20.4039,3.28865 19.7373,3.28865 19.5,-0.5 Z"/></g>
<g><path style="opacity:0.922" fill="#d7e7b6" d="M 27.5,1.5 C 36.3838,4.42492 40.7172,10.5916 40.5,20C 40.6499,29.3584 36.3166,35.6917 27.5,39C 21.6202,40.0099 15.9536,39.5099 10.5,37.5C 14.5256,32.6261 18.1922,27.4594 21.5,22C 22.8333,21.3333 24.1667,21.3333 25.5,22C 23.9682,26.1096 21.9682,29.9429 19.5,33.5C 22.4158,33.4901 24.5825,31.8234 26,28.5C 26.1673,22.9654 28.6673,19.132 33.5,17C 32.5509,16.3828 31.7175,16.5494 31,17.5C 31.1902,14.4149 32.0235,11.4149 33.5,8.5C 32.132,7.40632 30.9653,7.73966 30,9.5C 29.1965,12.2442 28.1965,14.9109 27,17.5C 25.6626,18.7649 24.1626,19.2649 22.5,19C 25.8913,13.6594 27.558,7.82603 27.5,1.5 Z"/></g>
<g><path style="opacity:0.006" fill="#fefffe" d="M 34.5,1.5 C 35.525,1.89657 35.6917,2.56323 35,3.5C 34.5357,2.90558 34.369,2.23891 34.5,1.5 Z"/></g>
<g><path style="opacity:1" fill="#95a57b" d="M 16.5,3.5 C 19.684,3.33218 20.184,4.66551 18,7.5C 16.4126,6.27297 15.0793,6.6063 14,8.5C 13.5172,7.55198 13.3505,6.55198 13.5,5.5C 15.1788,5.71481 16.1788,5.04814 16.5,3.5 Z"/></g>
<g><path style="opacity:1" fill="#819168" d="M 20.5,9.5 C 18.4403,11.1537 15.9403,12.1537 13,12.5C 12.2828,11.9558 11.7828,11.2891 11.5,10.5C 14.4299,9.70105 17.4299,9.36772 20.5,9.5 Z"/></g>
<g><path style="opacity:0.026" fill="#fefffe" d="M 8.5,41.5 C 16.5,40.1667 24.5,40.1667 32.5,41.5C 24.5,41.5 16.5,41.5 8.5,41.5 Z"/></g>
</svg>
