<?xml version="1.0" encoding="UTF-8"?>
<!DOCTYPE svg PUBLIC "-//W3C//DTD SVG 1.1//EN" "http://www.w3.org/Graphics/SVG/1.1/DTD/svg11.dtd">
<svg xmlns="http://www.w3.org/2000/svg" version="1.1" width="729px" height="80px" style="shape-rendering:geometricPrecision; text-rendering:geometricPrecision; image-rendering:optimizeQuality; fill-rule:evenodd; clip-rule:evenodd" xmlns:xlink="http://www.w3.org/1999/xlink">
<g><path style="opacity:0.969" fill="#799e4b" d="M 33.5,1.5 C 37.5,1.5 41.5,1.5 45.5,1.5C 45.5,11.1667 45.5,20.8333 45.5,30.5C 55.5,30.5 65.5,30.5 75.5,30.5C 75.5,20.8333 75.5,11.1667 75.5,1.5C 79.5,1.5 83.5,1.5 87.5,1.5C 87.5,24.8333 87.5,48.1667 87.5,71.5C 83.5,71.5 79.5,71.5 75.5,71.5C 75.5,61.1667 75.5,50.8333 75.5,40.5C 65.5,40.5 55.5,40.5 45.5,40.5C 45.5,50.8333 45.5,61.1667 45.5,71.5C 41.5,71.5 37.5,71.5 33.5,71.5C 33.5,48.1667 33.5,24.8333 33.5,1.5 Z"/></g>
<g><path style="opacity:0.954" fill="#799e4b" d="M 97.5,1.5 C 112.5,1.5 127.5,1.5 142.5,1.5C 142.5,4.83333 142.5,8.16667 142.5,11.5C 131.5,11.5 120.5,11.5 109.5,11.5C 109.5,17.8333 109.5,24.1667 109.5,30.5C 118.833,30.5 128.167,30.5 137.5,30.5C 137.5,33.8333 137.5,37.1667 137.5,40.5C 128.167,40.5 118.833,40.5 109.5,40.5C 109.5,47.5 109.5,54.5 109.5,61.5C 120.5,61.5 131.5,61.5 142.5,61.5C 142.5,64.8333 142.5,68.1667 142.5,71.5C 127.5,71.5 112.5,71.5 97.5,71.5C 97.5,48.1667 97.5,24.8333 97.5,1.5 Z"/></g>
<g><path style="opacity:0.928" fill="#799e4b" d="M 170.5,1.5 C 174.5,1.5 178.5,1.5 182.5,1.5C 190.534,24.5765 198.868,47.5765 207.5,70.5C 203.205,71.6609 198.871,71.8275 194.5,71C 192.332,65.9968 190.666,60.8302 189.5,55.5C 180.827,55.3336 172.16,55.5002 163.5,56C 161.332,61.0032 159.666,66.1698 158.5,71.5C 153.821,71.6658 149.155,71.4992 144.5,71C 153.464,47.9426 162.13,24.7759 170.5,1.5 Z M 175.5,18.5 C 176.117,18.6107 176.617,18.944 177,19.5C 179.735,27.8705 182.568,36.2039 185.5,44.5C 179.537,45.4959 173.537,45.8293 167.5,45.5C 170.167,36.5 172.833,27.5 175.5,18.5 Z"/></g>
<g><path style="opacity:0.962" fill="#799e4b" d="M 212.5,1.5 C 216.5,1.5 220.5,1.5 224.5,1.5C 224.5,21.5 224.5,41.5 224.5,61.5C 234.833,61.5 245.167,61.5 255.5,61.5C 255.5,64.8333 255.5,68.1667 255.5,71.5C 241.167,71.5 226.833,71.5 212.5,71.5C 212.5,48.1667 212.5,24.8333 212.5,1.5 Z"/></g>
<g><path style="opacity:0.959" fill="#799e4b" d="M 246.5,1.5 C 264.833,1.5 283.167,1.5 301.5,1.5C 301.5,4.83333 301.5,8.16667 301.5,11.5C 294.167,11.5 286.833,11.5 279.5,11.5C 279.5,31.5 279.5,51.5 279.5,71.5C 275.5,71.5 271.5,71.5 267.5,71.5C 267.5,51.5 267.5,31.5 267.5,11.5C 260.5,11.5 253.5,11.5 246.5,11.5C 246.5,8.16667 246.5,4.83333 246.5,1.5 Z"/></g>
<g><path style="opacity:0.969" fill="#799e4b" d="M 306.5,1.5 C 310.5,1.5 314.5,1.5 318.5,1.5C 318.5,11.1667 318.5,20.8333 318.5,30.5C 328.5,30.5 338.5,30.5 348.5,30.5C 348.5,20.8333 348.5,11.1667 348.5,1.5C 352.5,1.5 356.5,1.5 360.5,1.5C 360.5,24.8333 360.5,48.1667 360.5,71.5C 356.5,71.5 352.5,71.5 348.5,71.5C 348.5,61.1667 348.5,50.8333 348.5,40.5C 338.5,40.5 328.5,40.5 318.5,40.5C 318.5,50.8333 318.5,61.1667 318.5,71.5C 314.5,71.5 310.5,71.5 306.5,71.5C 306.5,48.1667 306.5,24.8333 306.5,1.5 Z"/></g>
<g><path style="opacity:0.924" fill="#799e4b" d="M 364.5,1.5 C 369.214,1.17338 373.88,1.50671 378.5,2.5C 383.682,12.8644 388.849,23.1978 394,33.5C 399.125,22.9197 403.959,12.2531 408.5,1.5C 413.167,1.5 417.833,1.5 422.5,1.5C 415.559,16.7147 408.059,31.7147 400,46.5C 399.5,54.8267 399.334,63.16 399.5,71.5C 395.5,71.5 391.5,71.5 387.5,71.5C 387.666,62.8269 387.5,54.1603 387,45.5C 379.218,30.9362 371.718,16.2696 364.5,1.5 Z"/></g>
<g><path style="opacity:0.939" fill="#799e4b" d="M 450.5,1.5 C 455.833,1.5 461.167,1.5 466.5,1.5C 472.367,18.9091 478.534,36.2424 485,53.5C 491.589,36.5726 498.089,19.5726 504.5,2.5C 509.792,1.50515 515.125,1.17182 520.5,1.5C 520.5,24.8333 520.5,48.1667 520.5,71.5C 516.5,71.5 512.5,71.5 508.5,71.5C 508.407,54.4643 508.574,37.4643 509,20.5C 502.527,37.4207 496.361,54.4207 490.5,71.5C 487.102,71.8204 483.768,71.487 480.5,70.5C 474.235,54.2055 468.068,37.8722 462,21.5C 462.24,38.1539 462.407,54.8206 462.5,71.5C 458.5,71.5 454.5,71.5 450.5,71.5C 450.5,48.1667 450.5,24.8333 450.5,1.5 Z"/></g>
<g><path style="opacity:0.954" fill="#799e4b" d="M 530.5,1.5 C 545.5,1.5 560.5,1.5 575.5,1.5C 575.5,4.83333 575.5,8.16667 575.5,11.5C 564.5,11.5 553.5,11.5 542.5,11.5C 542.5,17.8333 542.5,24.1667 542.5,30.5C 551.833,30.5 561.167,30.5 570.5,30.5C 570.5,33.8333 570.5,37.1667 570.5,40.5C 561.167,40.5 551.833,40.5 542.5,40.5C 542.5,47.5 542.5,54.5 542.5,61.5C 553.5,61.5 564.5,61.5 575.5,61.5C 575.5,64.8333 575.5,68.1667 575.5,71.5C 560.5,71.5 545.5,71.5 530.5,71.5C 530.5,48.1667 530.5,24.8333 530.5,1.5 Z"/></g>
<g><path style="opacity:0.958" fill="#799e4b" d="M 580.5,1.5 C 584.767,1.20299 588.934,1.53632 593,2.5C 602.667,18.1667 612.333,33.8333 622,49.5C 622.5,33.5035 622.667,17.5035 622.5,1.5C 626.5,1.5 630.5,1.5 634.5,1.5C 634.5,24.8333 634.5,48.1667 634.5,71.5C 630.116,71.8256 625.783,71.4922 621.5,70.5C 612.251,54.999 602.751,39.6657 593,24.5C 592.5,40.1631 592.333,55.8298 592.5,71.5C 588.5,71.5 584.5,71.5 580.5,71.5C 580.5,48.1667 580.5,24.8333 580.5,1.5 Z"/></g>
<g><path style="opacity:0.949" fill="#799e4b" d="M 644.5,1.5 C 648.5,1.5 652.5,1.5 656.5,1.5C 656.333,18.5033 656.5,35.5033 657,52.5C 658.736,59.2387 663.07,62.572 670,62.5C 677.407,62.4243 681.74,58.7576 683,51.5C 683.5,34.8367 683.667,18.17 683.5,1.5C 687.5,1.5 691.5,1.5 695.5,1.5C 695.962,20.5682 695.462,39.5682 694,58.5C 689.129,68.6918 680.962,73.3585 669.5,72.5C 658.926,72.9659 651.092,68.6326 646,59.5C 644.537,40.2346 644.037,20.9013 644.5,1.5 Z"/></g>
</svg>
