<?xml version="1.0" encoding="UTF-8"?>
<!DOCTYPE svg PUBLIC "-//W3C//DTD SVG 1.1//EN" "http://www.w3.org/Graphics/SVG/1.1/DTD/svg11.dtd">
<svg xmlns="http://www.w3.org/2000/svg" version="1.1" viewBox="0 0 1068 800" style="shape-rendering:geometricPrecision; text-rendering:geometricPrecision; image-rendering:optimizeQuality; fill-rule:evenodd; clip-rule:evenodd" xmlns:xlink="http://www.w3.org/1999/xlink">
<g><path style="opacity:0.967" fill="#3b4b29" d="M 211.5,494.5 C 229.494,471.205 244.994,446.205 258,419.5C 269.505,390.316 281.005,361.15 292.5,332C 273.474,337.898 254.474,344.231 235.5,351C 219.333,377.167 203.167,403.333 187,429.5C 172.154,450.523 156.821,471.19 141,491.5C 122.136,512.031 102.302,531.531 81.5,550C 66.6659,561.915 50.9993,572.582 34.5,582C 32.8204,582.034 31.3204,582.201 30,582.5C 29.5,581.5 29,580.5 28.5,579.5C 30.3333,576.5 32.1667,573.5 34,570.5C 43.6971,561.137 53.0304,551.47 62,541.5C 98.1858,494.99 133.186,447.657 167,399.5C 171.706,389.922 176.539,380.422 181.5,371C 181,370.5 180.5,370 180,369.5C 162.509,377.776 144.676,385.276 126.5,392C 120.474,393.438 114.474,394.938 108.5,396.5C 105.852,394.342 102.852,393.008 99.5,392.5C 98.61,385.416 100.277,378.916 104.5,373C 136.863,358.438 169.363,344.271 202,330.5C 230.205,279.757 253.205,226.757 271,171.5C 273.69,159.63 274.69,147.63 274,135.5C 265.444,115.647 251.277,110.147 231.5,119C 230.833,120 230.167,121 229.5,122C 247.467,122.462 257.8,131.629 260.5,149.5C 258.468,187.389 238.468,203.889 200.5,199C 191.047,197.459 181.547,196.292 172,195.5C 165.767,195.813 159.6,196.646 153.5,198C 142.526,202.832 132.192,208.666 122.5,215.5C 115.256,166.774 128.256,125.607 161.5,92C 171.535,85.9484 182.368,82.1151 194,80.5C 211.927,82.4272 221.927,92.4272 224,110.5C 231.204,101.629 239.371,93.7955 248.5,87C 254.712,83.727 261.046,80.727 267.5,78C 296.91,72.157 313.41,84.3236 317,114.5C 318.987,134.045 317.653,153.379 313,172.5C 297.89,221.333 278.39,268.333 254.5,313.5C 254.833,313.833 255.167,314.167 255.5,314.5C 272.116,308.139 288.949,302.472 306,297.5C 320.782,262.154 333.782,226.154 345,189.5C 353.209,176.963 364.542,168.63 379,164.5C 381.472,165.322 383.972,165.989 386.5,166.5C 388.078,170.711 388.578,175.044 388,179.5C 375.146,215.731 361.313,251.565 346.5,287C 364.079,283.652 381.745,280.485 399.5,277.5C 399.607,279.903 398.607,281.736 396.5,283C 376.344,292.911 356.344,303.078 336.5,313.5C 318.929,355.711 303.429,398.711 290,442.5C 289.151,445.561 287.651,448.228 285.5,450.5C 264.239,470.801 239.573,485.468 211.5,494.5 Z"/></g>
<g><path style="opacity:1" fill="#fbfafa" d="M 159.5,118.5 C 159.917,117.876 160.584,117.543 161.5,117.5C 176.431,120.687 191.431,123.353 206.5,125.5C 223.275,118.787 223.775,120.12 208,129.5C 199.89,145.894 196.89,163.228 199,181.5C 192.393,166.696 191.727,151.696 197,136.5C 191.333,140.833 185.667,145.167 180,149.5C 174.993,160.021 171.493,171.021 169.5,182.5C 169.167,181 168.833,179.5 168.5,178C 169.1,170.711 169.933,163.544 171,156.5C 163.357,163.811 156.024,171.477 149,179.5C 145.274,184.228 141.941,189.228 139,194.5C 138.333,192.5 138.333,190.5 139,188.5C 145.971,175.207 154.805,163.373 165.5,153C 159.833,152.667 154.167,152.333 148.5,152C 145.99,151.624 143.657,150.79 141.5,149.5C 153.8,147.334 166.133,145.168 178.5,143C 184.826,138.169 191.492,133.835 198.5,130C 184.693,128.799 171.693,124.966 159.5,118.5 Z"/></g>
<g><path style="opacity:0.962" fill="#3b4b29" d="M 751.5,480.5 C 751.068,479.29 750.401,478.29 749.5,477.5C 748.427,476.749 748.26,475.749 749,474.5C 753.953,463.949 758.286,453.283 762,442.5C 746.461,455.355 729.961,466.855 712.5,477C 700.573,482.163 688.573,482.496 676.5,478C 667.51,467.311 663.676,455.144 665,441.5C 647.719,457.108 628.553,469.941 607.5,480C 592.886,485.309 581.386,481.475 573,468.5C 571.498,464.484 569.998,460.484 568.5,456.5C 561.317,463.517 553.984,470.35 546.5,477C 537.932,484.225 528.266,486.225 517.5,483C 513.964,479.799 510.797,476.299 508,472.5C 497.751,477.917 486.917,481.75 475.5,484C 463.478,484.995 452.811,481.661 443.5,474C 435.642,466.48 429.808,457.647 426,447.5C 407.423,465.792 385.423,478.126 360,484.5C 327.126,482.293 309.292,464.46 306.5,431C 308.818,402.34 320.484,378.34 341.5,359C 346.203,355.648 351.203,352.815 356.5,350.5C 358.027,350.573 359.027,349.906 359.5,348.5C 377.64,340.23 395.64,340.73 413.5,350C 425.049,360.203 427.549,372.37 421,386.5C 404.163,417.52 377.996,434.353 342.5,437C 341.446,438.388 341.28,439.888 342,441.5C 346.6,448.555 353.1,452.721 361.5,454C 372.445,454.913 383.112,453.579 393.5,450C 402.833,445.667 412.167,441.333 421.5,437C 422.868,435.66 424.201,434.326 425.5,433C 425.221,401.831 437.221,376.498 461.5,357C 488.813,337.554 514.646,339.388 539,362.5C 540.892,358.942 543.725,356.442 547.5,355C 553.239,352.608 559.072,352.108 565,353.5C 564.864,357.524 564.197,361.524 563,365.5C 553.065,391.471 544.232,417.804 536.5,444.5C 536.5,447.833 538.167,449.5 541.5,449.5C 553.712,445.131 564.212,438.131 573,428.5C 577.345,413.132 582.678,398.132 589,383.5C 605.364,344.747 622.697,306.414 641,268.5C 657.57,236.346 675.903,205.346 696,175.5C 700.656,170.597 706.156,167.43 712.5,166C 713.175,168.242 712.675,170.409 711,172.5C 701.65,187.194 693.317,202.527 686,218.5C 670,255.833 654,293.167 638,330.5C 624.95,364.65 614.117,399.483 605.5,435C 605.767,438.164 607.433,439.164 610.5,438C 625.528,427.151 640.195,415.817 654.5,404C 663.354,397.313 673.02,392.147 683.5,388.5C 691.979,369.71 700.313,350.877 708.5,332C 695.96,335.735 683.46,339.902 671,344.5C 667.498,343.553 665.331,341.219 664.5,337.5C 665,336.5 665.5,335.5 666,334.5C 672.429,330.033 679.262,326.2 686.5,323C 697.316,318.424 707.983,313.591 718.5,308.5C 740.006,261.135 765.339,216.135 794.5,173.5C 798.886,169.807 803.886,167.473 809.5,166.5C 809.628,168.655 809.128,170.655 808,172.5C 798.05,187.394 789.384,203.061 782,219.5C 771.552,244.848 760.719,270.015 749.5,295C 772.857,286.095 796.191,276.761 819.5,267C 823,265.833 826.5,264.667 830,263.5C 831.059,263.63 831.892,264.13 832.5,265C 828.553,277.275 821.22,286.941 810.5,294C 794.704,300.231 778.704,305.897 762.5,311C 753.477,314.594 744.977,319.094 737,324.5C 723.667,358.5 712.333,393.167 703,428.5C 699.501,440.417 702.668,442.583 712.5,435C 730.269,420.563 748.602,406.896 767.5,394C 773.374,390.71 779.541,388.21 786,386.5C 809.083,336.331 831.083,285.664 852,234.5C 860.06,216.712 868.394,199.046 877,181.5C 884.259,172.95 893.426,168.95 904.5,169.5C 905.598,171.632 906.598,173.798 907.5,176C 879.161,238.182 853.161,301.349 829.5,365.5C 829.833,365.833 830.167,366.167 830.5,366.5C 846.355,355.574 863.689,347.907 882.5,343.5C 886.907,344.464 890.74,346.464 894,349.5C 896.217,353.094 897.717,356.927 898.5,361C 896.595,367.449 894.762,373.949 893,380.5C 884.369,396.397 877.702,413.064 873,430.5C 872.384,442.573 876.884,445.073 886.5,438C 900.693,425.827 910.86,410.994 917,393.5C 924.016,379.469 931.016,365.469 938,351.5C 945.575,344.864 954.408,342.031 964.5,343C 965.351,345.811 965.518,348.978 965,352.5C 956.775,375.849 947.775,398.849 938,421.5C 934.571,430.948 932.071,440.615 930.5,450.5C 954.869,437.527 974.369,419.194 989,395.5C 993.55,381.848 998.884,368.515 1005,355.5C 1007.59,352.238 1010.76,349.738 1014.5,348C 1021.6,345.317 1028.93,343.817 1036.5,343.5C 1036.66,346.187 1036.5,348.854 1036,351.5C 1028.94,371.342 1022.28,391.342 1016,411.5C 990.573,475.818 960.573,537.818 926,597.5C 903.74,632.427 874.907,660.593 839.5,682C 799.661,705.289 757.661,723.956 713.5,738C 702.3,741.303 690.967,743.636 679.5,745C 733.365,721.418 783.365,691.752 829.5,656C 849.351,637.449 868.184,617.949 886,597.5C 907.673,566.837 927.34,534.837 945,501.5C 952.394,488.213 958.56,474.38 963.5,460C 962.833,459.333 962.167,459.333 961.5,460C 951.015,469.82 939.015,477.153 925.5,482C 908.423,487.06 899.59,480.893 899,463.5C 888.303,472.432 876.136,478.599 862.5,482C 848.57,484.941 838.07,480.441 831,468.5C 830.774,465.905 830.274,463.405 829.5,461C 835.998,436.497 845.165,412.997 857,390.5C 858.09,387.421 857.257,385.088 854.5,383.5C 839.401,390.884 825.068,399.55 811.5,409.5C 802.868,428.571 794.535,447.738 786.5,467C 779.52,471.302 772.52,475.635 765.5,480C 760.74,481.668 756.074,481.835 751.5,480.5 Z M 487.5,376.5 C 508.095,376.602 515.595,386.602 510,406.5C 506.577,420.338 501.244,433.338 494,445.5C 484.532,452.815 474.698,453.315 464.5,447C 455.154,436.637 452.987,424.804 458,411.5C 462.709,395.357 472.543,383.69 487.5,376.5 Z M 373.5,378.5 C 381.382,377.546 384.549,380.879 383,388.5C 379.439,396.394 373.605,401.894 365.5,405C 358.165,408.25 350.665,411.083 343,413.5C 342.5,413.167 342,412.833 341.5,412.5C 347.028,396.306 357.695,384.972 373.5,378.5 Z"/></g>
<g><path style="opacity:0.908" fill="#3c4c2a" d="M 229.5,200.5 C 235.459,199.862 236.459,201.362 232.5,205C 222.686,213.741 211.353,219.574 198.5,222.5C 187.483,220.915 176.483,219.248 165.5,217.5C 151.084,217.854 137.417,221.187 124.5,227.5C 124.167,227.167 123.833,226.833 123.5,226.5C 128.622,217.877 135.955,212.044 145.5,209C 165.484,201.653 185.817,200.486 206.5,205.5C 214.421,204.451 222.088,202.784 229.5,200.5 Z"/></g>
<g><path style="opacity:0.271" fill="#918f90" d="M 359.5,348.5 C 359.027,349.906 358.027,350.573 356.5,350.5C 356.973,349.094 357.973,348.427 359.5,348.5 Z"/></g>
<g><path style="opacity:0.102" fill="#909090" d="M 749.5,477.5 C 750.401,478.29 751.068,479.29 751.5,480.5C 749.952,480.179 749.285,479.179 749.5,477.5 Z"/></g>
<g><path style="opacity:0.955" fill="#3b4b29" d="M 434.5,492.5 C 437.85,492.335 441.183,492.502 444.5,493C 446.487,495.47 446.987,498.303 446,501.5C 442.198,507.701 439.698,514.034 438.5,520.5C 450.631,511.601 463.965,505.101 478.5,501C 482.833,500.333 487.167,500.333 491.5,501C 492,501.5 492.5,502 493,502.5C 493.112,507.238 493.278,511.904 493.5,516.5C 503.843,510.656 514.509,505.489 525.5,501C 531.442,499.594 537.442,499.261 543.5,500C 544,500.5 544.5,501 545,501.5C 545.624,506.223 545.29,510.89 544,515.5C 532.47,543.236 521.47,571.236 511,599.5C 501.308,611.52 489.475,614.686 475.5,609C 486.319,585.359 496.319,561.359 505.5,537C 505.167,536.5 504.833,536 504.5,535.5C 494.939,540.866 485.773,546.866 477,553.5C 470.94,568.344 465.274,583.344 460,598.5C 453.777,608.862 444.611,613.862 432.5,613.5C 429.063,613.448 426.063,612.281 423.5,610C 434.085,586.578 444.085,562.911 453.5,539C 452.975,538.308 452.308,537.808 451.5,537.5C 441.234,543.548 431.401,550.215 422,557.5C 414.288,573.013 406.788,588.513 399.5,604C 388.249,610.635 376.249,614.969 363.5,617C 362.402,614.502 362.568,612.002 364,609.5C 384.151,577.532 402.485,544.532 419,510.5C 419.333,508.167 419.667,505.833 420,503.5C 424.45,499.202 429.283,495.535 434.5,492.5 Z"/></g>
<g><path style="opacity:0.514" fill="#3a4b28" d="M 211.5,494.5 C 210.833,495.167 210.833,495.167 211.5,494.5 Z"/></g>
<g><path style="opacity:0.959" fill="#3b4b29" d="M 589.5,496.5 C 601.845,495.224 613.512,497.39 624.5,503C 632.273,509.38 635.44,517.547 634,527.5C 629.227,541.933 620.394,553.1 607.5,561C 594.271,568.187 580.271,573.187 565.5,576C 564.881,578.544 565.381,581.044 567,583.5C 577.422,591.808 588.922,593.641 601.5,589C 610.248,585.528 618.915,581.862 627.5,578C 629.74,577.023 632.073,576.523 634.5,576.5C 633.824,580.187 632.324,583.52 630,586.5C 613.077,606.547 591.577,615.38 565.5,613C 549.705,607.872 539.205,597.372 534,581.5C 531.824,564.56 534.824,548.56 543,533.5C 550.555,518.945 561.721,508.112 576.5,501C 580.98,499.564 585.313,498.064 589.5,496.5 Z M 589.5,526.5 C 598.981,526.153 602.147,530.486 599,539.5C 596.736,542.433 593.902,544.6 590.5,546C 581.718,549.704 572.885,553.204 564,556.5C 563.718,550.383 565.718,545.049 570,540.5C 575.456,534.206 581.956,529.539 589.5,526.5 Z"/></g>
<g><path style="opacity:0.951" fill="#3b4b29" d="M 685.5,498.5 C 688.518,498.335 691.518,498.502 694.5,499C 695.167,499.667 695.833,500.333 696.5,501C 693.236,509.457 690.403,517.957 688,526.5C 703.857,515.653 720.69,506.486 738.5,499C 749.108,496.609 753.608,500.775 752,511.5C 741.151,539.532 731.151,567.866 722,596.5C 712.694,610.049 700.528,613.883 685.5,608C 696.319,584.359 706.319,560.359 715.5,536C 715.167,535.5 714.833,535 714.5,534.5C 700.774,540.114 688.607,548.114 678,558.5C 672.804,571.087 667.804,583.754 663,596.5C 654.756,609.713 643.256,614.046 628.5,609.5C 627.369,607.926 627.202,606.259 628,604.5C 642.231,573.807 654.898,542.474 666,510.5C 667.167,508 669,506.167 671.5,505C 676.396,503.101 681.063,500.935 685.5,498.5 Z"/></g>
<g><path style="opacity:0.949" fill="#3b4b29" d="M 784.5,499.5 C 786.527,499.338 788.527,499.505 790.5,500C 791.624,500.839 792.291,502.006 792.5,503.5C 785.836,526.494 779.169,549.494 772.5,572.5C 772.833,574.833 774.167,576.167 776.5,576.5C 789.556,570.223 801.723,562.557 813,553.5C 818.445,537.828 824.279,522.328 830.5,507C 834.877,503.985 839.71,502.152 845,501.5C 848.441,501.313 851.441,502.313 854,504.5C 847.5,527.015 841.167,549.682 835,572.5C 833.067,583.758 831.734,595.091 831,606.5C 820.752,614.292 812.418,612.626 806,601.5C 805.178,594.859 805.678,588.359 807.5,582C 807.167,581.833 806.833,581.667 806.5,581.5C 799.612,588.557 792.279,595.057 784.5,601C 776.457,607.128 767.457,609.794 757.5,609C 749.614,605.403 745.614,599.237 745.5,590.5C 751.079,562.594 759.579,535.594 771,509.5C 775.12,505.532 779.62,502.199 784.5,499.5 Z"/></g>
<g><path style="opacity:0.098" fill="#8f908f" d="M 677.5,745.5 C 678.833,746.167 678.833,746.167 677.5,745.5 Z"/></g>
</svg>
