<?xml version="1.0" encoding="UTF-8"?>
<!DOCTYPE svg PUBLIC "-//W3C//DTD SVG 1.1//EN" "http://www.w3.org/Graphics/SVG/1.1/DTD/svg11.dtd">
<svg xmlns="http://www.w3.org/2000/svg" version="1.1" width="1500px" height="1500px" style="shape-rendering:geometricPrecision; text-rendering:geometricPrecision; image-rendering:optimizeQuality; fill-rule:evenodd; clip-rule:evenodd" xmlns:xlink="http://www.w3.org/1999/xlink">
<g><path style="opacity:0.878" fill="#47565a" d="M 556.5,318.5 C 555.833,316.5 555.167,314.5 554.5,312.5C 554.5,308.833 554.5,305.167 554.5,301.5C 555.638,298.696 555.805,295.696 555,292.5C 554.722,293.416 554.222,294.082 553.5,294.5C 548.708,207.59 507.375,145.09 429.5,107C 385.792,88.7092 340.459,83.0425 293.5,90C 232.771,100.021 182.438,128.187 142.5,174.5C 141.833,174.5 141.5,174.167 141.5,173.5C 197.793,107.716 269.46,78.216 356.5,85C 428.721,92.6735 484.887,126.507 525,186.5C 548.942,227.186 559.442,271.186 556.5,318.5 Z"/></g>
<g><path style="opacity:0.993" fill="#729c3b" d="M 469.5,197.5 C 471.5,200.167 473.833,202.5 476.5,204.5C 470.511,214.472 464.511,224.472 458.5,234.5C 464.763,245.458 469.763,256.958 473.5,269C 484.748,271.249 495.915,273.749 507,276.5C 507.333,276.167 507.667,275.833 508,275.5C 508.5,284.16 508.666,292.827 508.5,301.5C 507.834,305.988 507.501,310.654 507.5,315.5C 507.507,320.551 508.173,325.217 509.5,329.5C 509.958,332.394 509.291,334.894 507.5,337C 496.371,339.392 485.371,342.225 474.5,345.5C 471.011,357.634 466.344,369.3 460.5,380.5C 467.082,389.996 473.415,399.662 479.5,409.5C 466.144,425.025 451.81,439.192 436.5,452C 427.165,445.664 417.499,439.831 407.5,434.5C 396.595,441.121 384.928,445.788 372.5,448.5C 370.167,460.499 367.834,472.499 365.5,484.5C 345.489,484.833 325.489,484.5 305.5,483.5C 302.449,472.244 299.783,460.911 297.5,449.5C 285.026,447.017 273.193,442.684 262,436.5C 252.51,442.651 243.01,448.818 233.5,455C 218.105,442.373 203.438,428.54 189.5,413.5C 195.5,403.5 201.5,393.5 207.5,383.5C 201.324,372.807 196.491,361.473 193,349.5C 181.356,346.137 169.523,343.47 157.5,341.5C 157.395,321.447 157.395,301.447 157.5,281.5C 168.607,278.592 179.94,275.592 191.5,272.5C 194.894,260.484 199.561,248.984 205.5,238C 199.707,228.244 193.54,218.744 187,209.5C 186.333,208.833 186.333,208.167 187,207.5C 200.271,193.227 213.938,179.227 228,165.5C 238.201,171.354 248.367,177.354 258.5,183.5C 269.204,177.318 280.537,172.485 292.5,169C 295.645,157.304 298.312,145.471 300.5,133.5C 320.522,133.19 340.522,133.19 360.5,133.5C 363.55,144.751 366.217,156.084 368.5,167.5C 380.944,170.222 392.61,174.888 403.5,181.5C 413.544,174.953 423.711,168.62 434,162.5C 446.317,173.65 458.151,185.317 469.5,197.5 Z"/></g>
<g><path style="opacity:0.012" fill="#c6b17e" d="M 469.5,197.5 C 472.833,198.833 475.167,201.167 476.5,204.5C 473.833,202.5 471.5,200.167 469.5,197.5 Z"/></g>
<g><path style="opacity:0.369" fill="#6b777c" d="M 141.5,173.5 C 141.5,174.167 141.833,174.5 142.5,174.5C 127.498,193.484 115.498,214.15 106.5,236.5C 105.833,236.5 105.5,236.167 105.5,235.5C 113.786,212.578 125.786,191.911 141.5,173.5 Z"/></g>
<g><path style="opacity:0.478" fill="#8e979a" d="M 105.5,235.5 C 105.5,236.167 105.833,236.5 106.5,236.5C 103.747,246.618 100.747,256.618 97.5,266.5C 98.4171,255.835 101.084,245.502 105.5,235.5 Z"/></g>
<g><path style="opacity:0.966" fill="#0b1e26" d="M 554.5,301.5 C 553.532,299.393 553.198,297.059 553.5,294.5C 554.222,294.082 554.722,293.416 555,292.5C 555.805,295.696 555.638,298.696 554.5,301.5 Z"/></g>
<g><path style="opacity:1" fill="#c7c49a" d="M 364.5,309.5 C 365.114,304.428 366.114,299.428 367.5,294.5C 368.555,299.942 367.555,304.942 364.5,309.5 Z"/></g>
<g><path style="opacity:1" fill="#eee8dc" d="M 359.5,319.5 C 357.971,323.368 355.637,326.701 352.5,329.5C 328.992,347.97 305.325,348.136 281.5,330C 268.234,316.12 263.067,299.62 266,280.5C 273.414,255.254 290.248,241.587 316.5,239.5C 343.964,241.484 361.13,255.817 368,282.5C 368.808,284.579 368.641,286.579 367.5,288.5C 364.172,263.34 350.172,247.84 325.5,242C 296.82,240.028 277.653,252.528 268,279.5C 263.969,303.086 271.802,321.586 291.5,335C 318.186,346.833 340.852,341.666 359.5,319.5 Z"/></g>
<g><path style="opacity:1" fill="#ece1d3" d="M 364.5,309.5 C 363.873,313.42 362.207,316.753 359.5,319.5C 360.659,315.849 362.326,312.515 364.5,309.5 Z"/></g>
<g><path style="opacity:0.966" fill="#12242b" d="M 554.5,312.5 C 555.167,314.5 555.833,316.5 556.5,318.5C 556.5,319.5 556.5,320.5 556.5,321.5C 555.022,320.552 554.022,319.219 553.5,317.5C 553.216,315.585 553.549,313.919 554.5,312.5 Z"/></g>
<g><path style="opacity:0.639" fill="#b8aa7c" d="M 508.5,301.5 C 508.195,310.917 508.528,320.25 509.5,329.5C 508.173,325.217 507.507,320.551 507.5,315.5C 507.501,310.654 507.834,305.988 508.5,301.5 Z"/></g>
<g><path style="opacity:0.997" fill="#729c3b" d="M 809.5,746.5 C 807.368,745.273 805.034,744.273 802.5,743.5C 801.353,743.818 800.519,744.484 800,745.5C 795.52,737.739 790.853,730.072 786,722.5C 774.01,711.451 760.844,709.785 746.5,717.5C 738.833,713 731.167,708.5 723.5,704C 718.118,702.059 712.618,700.559 707,699.5C 702.647,700.037 698.48,701.203 694.5,703C 689.167,707.667 683.833,712.333 678.5,717C 671.986,719.966 665.319,722.633 658.5,725C 656.333,726.5 654.5,728.333 653,730.5C 651.659,734.516 649.826,738.182 647.5,741.5C 641.151,746.498 634.485,751.165 627.5,755.5C 625.477,753.147 623.477,750.814 621.5,748.5C 619.431,745.427 616.764,743.094 613.5,741.5C 606.5,735.167 599.833,728.5 593.5,721.5C 592.167,719.5 590.5,717.833 588.5,716.5C 584.203,711.702 579.703,707.035 575,702.5C 574.517,701.552 574.351,700.552 574.5,699.5C 581.434,687.14 588.767,674.973 596.5,663C 588.239,648.974 581.739,634.141 577,618.5C 562.075,614.547 547.241,611.547 532.5,609.5C 531.753,583.854 531.42,557.854 531.5,531.5C 546.416,528.771 561.083,525.104 575.5,520.5C 579.747,505.087 585.747,490.42 593.5,476.5C 585.682,463.524 577.682,450.69 569.5,438C 581.542,424.118 594.209,410.618 607.5,397.5C 612.573,393.934 617.24,389.768 621.5,385C 622.448,384.517 623.448,384.351 624.5,384.5C 636.769,391.589 648.936,398.923 661,406.5C 675.252,398.209 690.252,391.542 706,386.5C 709.1,371.937 712.267,357.437 715.5,343C 716.872,342.598 718.205,342.098 719.5,341.5C 743.788,341.871 768.121,341.871 792.5,341.5C 795.992,356.466 799.325,371.466 802.5,386.5C 810.641,388.036 818.641,390.202 826.5,393C 833.667,396.5 840.833,400 848,403.5C 861.243,395.795 874.076,387.462 886.5,378.5C 904.628,396.46 922.961,414.293 941.5,432C 933.374,445.083 925.374,458.25 917.5,471.5C 926.322,485.474 932.655,500.474 936.5,516.5C 951.533,519.288 966.533,522.288 981.5,525.5C 982.051,551.163 982.384,576.83 982.5,602.5C 967.597,605.934 952.764,609.601 938,613.5C 934.123,629.136 928.29,643.969 920.5,658C 928.25,670.835 936.25,683.502 944.5,696C 927.545,714.624 910.212,732.957 892.5,751C 878.939,744.124 865.772,736.291 853,727.5C 839.346,735.573 824.846,741.906 809.5,746.5 Z"/></g>
<g><path style="opacity:1" fill="#e6e0cd" d="M 352.5,329.5 C 368.963,344.13 384.63,359.63 399.5,376C 398.833,376.667 398.167,376.667 397.5,376C 381.857,360.861 366.857,345.361 352.5,329.5 Z"/></g>
<g><path style="opacity:0.898" fill="#4b5a5f" d="M 553.5,317.5 C 554.022,319.219 555.022,320.552 556.5,321.5C 553.387,353.673 543.554,383.673 527,411.5C 517.005,428.98 506.839,446.314 496.5,463.5C 495.662,463.158 495.328,462.492 495.5,461.5C 504.723,444.725 514.223,428.059 524,411.5C 535.736,391.033 544.403,369.366 550,346.5C 552.151,336.945 553.318,327.278 553.5,317.5 Z"/></g>
<g><path style="opacity:0.569" fill="#b7c87e" d="M 624.5,384.5 C 623.448,384.351 622.448,384.517 621.5,385C 617.24,389.768 612.573,393.934 607.5,397.5C 611.963,392.535 616.63,387.702 621.5,383C 622.998,382.415 623.998,382.915 624.5,384.5 Z"/></g>
<g><path style="opacity:0.897" fill="#5a676c" d="M 1230.5,426.5 C 1237.61,426.174 1244.61,426.841 1251.5,428.5C 1240.84,429.29 1230.17,429.957 1219.5,430.5C 1217.83,430.167 1216.17,429.833 1214.5,429.5C 1215,429.167 1215.5,428.833 1216,428.5C 1220.98,427.907 1225.81,427.24 1230.5,426.5 Z"/></g>
<g><path style="opacity:0.482" fill="#4c5a60" d="M 1285.5,434.5 C 1286.95,433.387 1288.61,433.22 1290.5,434C 1300.13,436.542 1309.46,439.875 1318.5,444C 1320.26,444.965 1320.59,446.132 1319.5,447.5C 1308.29,442.766 1296.96,438.433 1285.5,434.5 Z"/></g>
<g><path style="opacity:0.725" fill="#47565b" d="M 1176.5,435.5 C 1177.98,435.238 1179.31,435.571 1180.5,436.5C 1169.2,440.824 1157.87,445.157 1146.5,449.5C 1146.17,449.167 1145.83,448.833 1145.5,448.5C 1148.49,446.21 1151.83,444.376 1155.5,443C 1162.57,440.368 1169.57,437.868 1176.5,435.5 Z"/></g>
<g><path style="opacity:0.569" fill="#45545a" d="M 1351.5,461.5 C 1363.08,467.241 1373.41,474.741 1382.5,484C 1381.09,484.315 1379.76,483.982 1378.5,483C 1370.45,476.613 1362.11,470.613 1353.5,465C 1352.18,464.184 1351.51,463.017 1351.5,461.5 Z"/></g>
<g><path style="opacity:0.843" fill="#4d5b60" d="M 1114.5,465.5 C 1116.65,465.389 1116.98,466.056 1115.5,467.5C 1106.21,475.284 1097.38,483.618 1089,492.5C 1088.5,492 1088,491.5 1087.5,491C 1095.44,481.226 1104.44,472.726 1114.5,465.5 Z"/></g>
<g><path style="opacity:0.996" fill="#729c3b" d="M 1141.5,752.5 C 1139.31,752.296 1137.31,751.63 1135.5,750.5C 1124.84,741.011 1114.34,731.344 1104,721.5C 1103.33,720.5 1103.33,719.5 1104,718.5C 1108.77,710.625 1113.27,702.625 1117.5,694.5C 1112.12,685.408 1108.12,675.742 1105.5,665.5C 1096.71,664.163 1087.71,662.496 1078.5,660.5C 1076.95,655.946 1075.95,651.279 1075.5,646.5C 1074.86,634.177 1074.53,621.844 1074.5,609.5C 1083.48,607.403 1092.48,605.236 1101.5,603C 1102.43,602.612 1103.09,601.945 1103.5,601C 1105.7,591.213 1109.37,582.046 1114.5,573.5C 1109.04,565.402 1103.7,557.235 1098.5,549C 1108.97,537.029 1119.64,525.196 1130.5,513.5C 1131.72,512.386 1133.06,512.219 1134.5,513C 1142.28,517.972 1150.12,522.805 1158,527.5C 1166.32,521.551 1175.48,517.218 1185.5,514.5C 1188.1,505.07 1190.43,495.57 1192.5,486C 1209.1,484.555 1225.77,483.722 1242.5,483.5C 1244.51,492.523 1246.67,501.523 1249,510.5C 1254.13,513.306 1259.63,515.473 1265.5,517C 1269.83,519.167 1274.17,521.333 1278.5,523.5C 1286.83,518.167 1295.17,512.833 1303.5,507.5C 1315.46,518.288 1327.29,529.288 1339,540.5C 1339.67,541.5 1339.67,542.5 1339,543.5C 1333.94,551.019 1329.44,558.852 1325.5,567C 1330.23,576.299 1334.57,585.799 1338.5,595.5C 1348.03,597.438 1357.53,599.438 1367,601.5C 1367.22,612.689 1367.72,623.856 1368.5,635C 1368.62,640.382 1368.29,645.882 1367.5,651.5C 1358.25,654.252 1348.92,656.585 1339.5,658.5C 1337.51,668.988 1333.84,678.822 1328.5,688C 1334.24,696.075 1339.58,704.409 1344.5,713C 1333.71,725.455 1322.55,737.621 1311,749.5C 1302.45,744.227 1293.78,739.227 1285,734.5C 1280.44,736.866 1275.94,739.366 1271.5,742C 1266.65,744.1 1261.65,745.6 1256.5,746.5C 1254.58,756.456 1252.91,766.456 1251.5,776.5C 1234.38,777.269 1217.38,777.602 1200.5,777.5C 1198.01,767.875 1195.68,758.208 1193.5,748.5C 1182.99,746.659 1173.15,742.993 1164,737.5C 1156.73,742.882 1149.23,747.882 1141.5,752.5 Z"/></g>
<g><path style="opacity:1" fill="#f2ede1" d="M 782.5,625.5 C 781.833,625.5 781.5,625.167 781.5,624.5C 800.235,615.268 815.401,601.934 827,584.5C 840.349,548.574 832.182,518.74 802.5,495C 771.789,473.388 740.789,473.054 709.5,494C 690.031,510.109 680.031,530.943 679.5,556.5C 680.17,572.497 685.337,586.83 695,599.5C 701.762,606.767 708.928,613.434 716.5,619.5C 687.202,601.896 674.702,575.896 679,541.5C 690.606,496.898 719.439,475.731 765.5,478C 797.232,483.801 819.399,501.634 832,531.5C 841.184,564.616 832.017,591.449 804.5,612C 797.27,616.776 789.937,621.276 782.5,625.5 Z"/></g>
<g><path style="opacity:0.894" fill="#4c5a5f" d="M 1405.5,509.5 C 1406.54,508.209 1407.71,508.209 1409,509.5C 1412.41,513.994 1415.58,518.66 1418.5,523.5C 1418.17,523.833 1417.83,524.167 1417.5,524.5C 1413.48,519.481 1409.48,514.481 1405.5,509.5 Z"/></g>
<g><path style="opacity:0.827" fill="#505e63" d="M 1066.5,518.5 C 1067.38,518.369 1068.04,518.702 1068.5,519.5C 1062.75,529.339 1057.25,539.339 1052,549.5C 1051.16,551.007 1050,551.507 1048.5,551C 1053.86,539.769 1059.86,528.936 1066.5,518.5 Z"/></g>
<g><path style="opacity:0.802" fill="#5b686d" d="M 495.5,461.5 C 495.328,462.492 495.662,463.158 496.5,463.5C 480.717,493.89 471.55,526.224 469,560.5C 467.026,588.501 467.026,616.501 469,644.5C 470.129,650.479 471.129,656.479 472,662.5C 475.468,669.119 478.135,676.119 480,683.5C 480.789,685.712 480.622,687.712 479.5,689.5C 478.683,686.521 477.849,683.521 477,680.5C 476.502,678.456 475.335,677.122 473.5,676.5C 467.072,651.803 464.072,626.637 464.5,601C 463.619,557.148 471.452,514.982 488,474.5C 490.022,469.777 492.522,465.443 495.5,461.5 Z"/></g>
<g><path style="opacity:1" fill="#f0f0dd" d="M 743.5,624.5 C 742.833,622.167 742.167,619.833 741.5,617.5C 742.667,605.835 742.667,594.168 741.5,582.5C 732.499,578.005 730.499,571.505 735.5,563C 738.347,561.148 740.847,561.648 743,564.5C 744.41,570.379 744.91,576.379 744.5,582.5C 751.96,583.184 757.793,580.517 762,574.5C 762.667,573.5 762.667,572.5 762,571.5C 758.573,568.744 755.907,565.41 754,561.5C 751.671,553.444 754.505,549.944 762.5,551C 767.972,557.042 768.972,563.875 765.5,571.5C 767.228,573.452 769.395,574.785 772,575.5C 772.945,575.095 773.612,574.428 774,573.5C 773.821,568.038 775.154,563.038 778,558.5C 785.244,553.538 789.744,555.371 791.5,564C 789.852,573.475 784.185,577.975 774.5,577.5C 773.605,594.86 772.438,612.194 771,629.5C 770.87,613.462 771.704,597.462 773.5,581.5C 773.167,580.167 772.833,578.833 772.5,577.5C 769.554,576.694 766.888,575.361 764.5,573.5C 760.404,581.296 754.071,584.63 745.5,583.5C 744.2,597.136 743.533,610.803 743.5,624.5 Z"/></g>
<g><path style="opacity:1" fill="#739b3a" d="M 781.5,557.5 C 788.382,557.887 790.882,561.553 789,568.5C 785.977,573.596 781.477,575.929 775.5,575.5C 775.386,568.659 777.386,562.659 781.5,557.5 Z"/></g>
<g><path style="opacity:1" fill="#769e3e" d="M 757.5,551.5 C 761.09,551.544 763.59,553.211 765,556.5C 765.781,561.305 765.281,565.972 763.5,570.5C 757.747,566.658 754.914,561.325 755,554.5C 756.045,553.627 756.878,552.627 757.5,551.5 Z"/></g>
<g><path style="opacity:1" fill="#779d3f" d="M 737.5,563.5 C 740.292,563.452 742.125,564.785 743,567.5C 743.828,572.202 743.662,576.869 742.5,581.5C 734.269,577.158 732.602,571.158 737.5,563.5 Z"/></g>
<g><path style="opacity:1" fill="#a9d472" d="M 1165.5,618.5 C 1164.83,614.5 1164.17,610.5 1163.5,606.5C 1163.17,595.147 1163.5,583.814 1164.5,572.5C 1165.5,587.819 1165.83,603.152 1165.5,618.5 Z"/></g>
<g><path style="opacity:0.808" fill="#556268" d="M 1034.5,583.5 C 1035.38,583.369 1036.04,583.702 1036.5,584.5C 1032.7,596.084 1028.37,607.418 1023.5,618.5C 1025.3,606.42 1028.97,594.753 1034.5,583.5 Z"/></g>
<g><path style="opacity:1" fill="#fbdcda" d="M 716.5,619.5 C 718.027,619.427 719.027,620.094 719.5,621.5C 717.973,621.573 716.973,620.906 716.5,619.5 Z"/></g>
<g><path style="opacity:1" fill="#b4c388" d="M 741.5,617.5 C 742.167,619.833 742.833,622.167 743.5,624.5C 743.83,630.868 743.496,637.202 742.5,643.5C 741.502,634.859 741.169,626.192 741.5,617.5 Z"/></g>
<g><path style="opacity:1" fill="#edebdb" d="M 1245.5,597.5 C 1255.17,597.5 1264.83,597.5 1274.5,597.5C 1274.83,606.857 1274.5,616.19 1273.5,625.5C 1272.67,617.521 1272.17,609.521 1272,601.5C 1256.13,615.708 1239.96,629.541 1223.5,643C 1222.09,643.315 1220.76,642.982 1219.5,642C 1215.62,637.786 1211.45,633.952 1207,630.5C 1198.01,637.486 1189.01,644.486 1180,651.5C 1179.31,650.668 1179.48,650.002 1180.5,649.5C 1189.46,642.542 1198.13,635.209 1206.5,627.5C 1211.82,631.659 1216.99,635.992 1222,640.5C 1226.82,637.015 1231.66,633.515 1236.5,630C 1247.98,619.763 1259.65,609.763 1271.5,600C 1262.44,600.142 1253.78,599.309 1245.5,597.5 Z"/></g>
<g><path style="opacity:1" fill="#ddc9b3" d="M 719.5,621.5 C 723.843,623.088 728.01,625.088 732,627.5C 732.667,632.167 732.667,636.833 732,641.5C 731.667,637.167 731.333,632.833 731,628.5C 726.853,626.518 723.02,624.184 719.5,621.5 Z"/></g>
<g><path style="opacity:1" fill="#dcdda7" d="M 781.5,624.5 C 781.5,625.167 781.833,625.5 782.5,625.5C 782.5,632.5 782.5,639.5 782.5,646.5C 767.152,646.833 751.819,646.499 736.5,645.5C 751.576,645.346 766.576,645.346 781.5,645.5C 780.639,638.332 780.639,631.332 781.5,624.5 Z"/></g>
<g><path style="opacity:0.244" fill="#ddd39e" d="M 1075.5,646.5 C 1075.95,651.279 1076.95,655.946 1078.5,660.5C 1077.5,660.5 1076.5,660.5 1075.5,660.5C 1075.5,655.833 1075.5,651.167 1075.5,646.5 Z"/></g>
<g><path style="opacity:0.794" fill="#61716b" d="M 1011.5,651.5 C 1012.5,651.47 1013.16,651.97 1013.5,653C 1010.38,664.531 1006.38,675.698 1001.5,686.5C 1000.39,685.277 1000.22,683.944 1001,682.5C 1004.41,672.095 1007.91,661.762 1011.5,651.5 Z"/></g>
<g><path style="opacity:1" fill="#f4e3de" d="M 743.5,658.5 C 756.197,658.273 768.863,658.773 781.5,660C 764.5,660.667 747.5,660.667 730.5,660C 735.019,659.825 739.353,659.325 743.5,658.5 Z"/></g>
<g><path style="opacity:1" fill="#cbddaa" d="M 735.5,668.5 C 749.849,668.167 764.182,668.501 778.5,669.5C 771.333,669.833 764.167,670.167 757,670.5C 749.467,670.497 742.301,669.831 735.5,668.5 Z"/></g>
<g><path style="opacity:0.98" fill="#f5bc9d" d="M 573.5,685.5 C 559.833,685.5 546.167,685.5 532.5,685.5C 530.416,683.924 528.416,682.091 526.5,680C 520.403,676.942 517.07,678.775 516.5,685.5C 512.167,685.5 507.833,685.5 503.5,685.5C 503.5,684.833 503.167,684.5 502.5,684.5C 502.196,683.85 501.863,683.183 501.5,682.5C 504.464,680.866 507.131,678.866 509.5,676.5C 518.796,674.554 528.129,673.887 537.5,674.5C 540.167,677.5 542.833,680.5 545.5,683.5C 554.991,684.167 564.325,684.833 573.5,685.5 Z"/></g>
<g><path style="opacity:1" fill="#c2cfa3" d="M 764.5,680.5 C 759.833,679.167 755.167,679.167 750.5,680.5C 749.711,680.217 749.044,679.717 748.5,679C 754.196,678.17 759.863,678.337 765.5,679.5C 765.376,680.107 765.043,680.44 764.5,680.5 Z"/></g>
<g><path style="opacity:1" fill="#faeff0" d="M 750.5,680.5 C 755.167,679.167 759.833,679.167 764.5,680.5C 759.833,681.833 755.167,681.833 750.5,680.5 Z"/></g>
<g><path style="opacity:1" fill="#e8efde" d="M 1163.5,606.5 C 1164.17,610.5 1164.83,614.5 1165.5,618.5C 1165.5,639.833 1165.5,661.167 1165.5,682.5C 1192.5,682.5 1219.5,682.5 1246.5,682.5C 1248.17,683.167 1249.83,683.833 1251.5,684.5C 1222.17,684.5 1192.83,684.5 1163.5,684.5C 1163.5,658.5 1163.5,632.5 1163.5,606.5 Z"/></g>
<g><path style="opacity:1" fill="#c4de90" d="M 1246.5,682.5 C 1258.85,682.168 1271.18,682.501 1283.5,683.5C 1272.85,684.499 1262.19,684.832 1251.5,684.5C 1249.83,683.833 1248.17,683.167 1246.5,682.5 Z"/></g>
<g><path style="opacity:1" fill="#293b42" d="M 502.5,684.5 C 503.167,684.5 503.5,684.833 503.5,685.5C 507.833,685.5 512.167,685.5 516.5,685.5C 516.318,687.591 516.652,689.591 517.5,691.5C 513.796,692.233 510.129,692.9 506.5,693.5C 498.045,694.478 490.045,693.145 482.5,689.5C 488.32,684.995 494.986,683.328 502.5,684.5 Z"/></g>
<g><path style="opacity:1" fill="#1b2e35" d="M 532.5,685.5 C 546.167,685.5 559.833,685.5 573.5,685.5C 577.5,687.833 577.5,690.167 573.5,692.5C 560.167,692.5 546.833,692.5 533.5,692.5C 532.519,690.604 531.519,688.604 530.5,686.5C 530.957,685.702 531.624,685.369 532.5,685.5 Z"/></g>
<g><path style="opacity:0.051" fill="#929b9d" d="M 473.5,676.5 C 475.335,677.122 476.502,678.456 477,680.5C 477.849,683.521 478.683,686.521 479.5,689.5C 477.129,685.409 475.129,681.076 473.5,676.5 Z"/></g>
<g><path style="opacity:0.997" fill="#fb9b6e" d="M 532.5,685.5 C 531.624,685.369 530.957,685.702 530.5,686.5C 531.519,688.604 532.519,690.604 533.5,692.5C 535.042,693.163 536.709,693.83 538.5,694.5C 539.5,696.5 540.5,698.5 541.5,700.5C 540.5,701.833 539.5,703.167 538.5,704.5C 540.251,706.972 541.085,709.639 541,712.5C 535.867,701.732 530.367,691.232 524.5,681C 522.559,680.257 520.726,680.424 519,681.5C 518.09,686.664 518.59,691.664 520.5,696.5C 520.315,697.584 519.982,698.584 519.5,699.5C 517.236,705.416 512.903,708.082 506.5,707.5C 506.33,706.178 506.663,705.011 507.5,704C 505.249,704.207 502.915,704.373 500.5,704.5C 501.706,700.423 503.706,696.757 506.5,693.5C 510.129,692.9 513.796,692.233 517.5,691.5C 516.652,689.591 516.318,687.591 516.5,685.5C 517.07,678.775 520.403,676.942 526.5,680C 528.416,682.091 530.416,683.924 532.5,685.5 Z"/></g>
<g><path style="opacity:0.995" fill="#fcbe9c" d="M 533.5,692.5 C 546.833,692.5 560.167,692.5 573.5,692.5C 567.347,693.328 561.013,693.828 554.5,694C 558.188,696.542 559.854,700.042 559.5,704.5C 558.737,715.886 558.071,727.553 557.5,739.5C 548.465,744.349 539.132,748.682 529.5,752.5C 527.617,746.399 525.45,740.399 523,734.5C 522.667,723.833 522.333,713.167 522,702.5C 521.148,701.429 520.315,700.429 519.5,699.5C 519.982,698.584 520.315,697.584 520.5,696.5C 518.59,691.664 518.09,686.664 519,681.5C 520.726,680.424 522.559,680.257 524.5,681C 530.367,691.232 535.867,701.732 541,712.5C 541.085,709.639 540.251,706.972 538.5,704.5C 539.5,703.167 540.5,701.833 541.5,700.5C 540.5,698.5 539.5,696.5 538.5,694.5C 536.709,693.83 535.042,693.163 533.5,692.5 Z"/></g>
<g><path style="opacity:0.675" fill="#9b9f55" d="M 574.5,699.5 C 574.351,700.552 574.517,701.552 575,702.5C 579.703,707.035 584.203,711.702 588.5,716.5C 582.925,712.433 577.759,707.766 573,702.5C 572.415,701.002 572.915,700.002 574.5,699.5 Z"/></g>
<g><path style="opacity:1" fill="#342b03" d="M 809.5,746.5 C 813.699,750.224 816.365,754.891 817.5,760.5C 817.802,767.775 817.136,774.941 815.5,782C 815.833,783.5 816.167,785 816.5,786.5C 817.298,786.043 817.631,785.376 817.5,784.5C 824.148,773.771 833.815,769.938 846.5,773C 863.193,780.881 870.026,794.047 867,812.5C 861.534,831.143 849.367,842.143 830.5,845.5C 825.324,845.662 820.824,843.996 817,840.5C 815.043,847.752 811.543,854.085 806.5,859.5C 805.235,860.963 803.235,862.296 800.5,863.5C 794.869,867.323 788.536,869.489 781.5,870C 780.211,871.802 778.544,872.969 776.5,873.5C 766.868,874.672 757.868,872.838 749.5,868C 734.923,858.085 723.923,845.085 716.5,829C 729.353,824.455 734.187,815.622 731,802.5C 723.744,791.991 715.244,790.824 705.5,799C 704.167,799.667 702.833,799.667 701.5,799C 696.757,790.029 695.257,780.529 697,770.5C 694.649,771.714 692.149,772.548 689.5,773C 684.177,773.499 678.844,773.666 673.5,773.5C 658.142,768.047 649.475,757.38 647.5,741.5C 649.826,738.182 651.659,734.516 653,730.5C 654.5,728.333 656.333,726.5 658.5,725C 665.319,722.633 671.986,719.966 678.5,717C 683.833,712.333 689.167,707.667 694.5,703C 698.48,701.203 702.647,700.037 707,699.5C 712.618,700.559 718.118,702.059 723.5,704C 731.167,708.5 738.833,713 746.5,717.5C 760.844,709.785 774.01,711.451 786,722.5C 790.853,730.072 795.52,737.739 800,745.5C 800.519,744.484 801.353,743.818 802.5,743.5C 805.034,744.273 807.368,745.273 809.5,746.5 Z"/></g>
<g><path style="opacity:0.024" fill="#d0a780" d="M 588.5,716.5 C 590.5,717.833 592.167,719.5 593.5,721.5C 590.833,720.833 589.167,719.167 588.5,716.5 Z"/></g>
<g><path style="opacity:0.933" fill="#505e63" d="M 986.5,718.5 C 987.497,718.47 988.164,718.97 988.5,720C 984.336,730.83 979.003,740.996 972.5,750.5C 971.635,751.583 970.635,751.749 969.5,751C 975.829,740.507 981.496,729.673 986.5,718.5 Z"/></g>
<g><path style="opacity:1" fill="#708aa9" d="M 580.5,763.5 C 562.612,761.303 546.612,765.636 532.5,776.5C 529.702,769.447 526.702,762.447 523.5,755.5C 525.313,754.828 527.313,753.828 529.5,752.5C 539.132,748.682 548.465,744.349 557.5,739.5C 559.645,738.152 561.812,737.818 564,738.5C 569.748,746.733 575.248,755.067 580.5,763.5 Z"/></g>
<g><path style="opacity:0.804" fill="#4e5c61" d="M 493.5,720.5 C 500.535,730.204 506.869,740.538 512.5,751.5C 512.167,751.833 511.833,752.167 511.5,752.5C 503.446,743.066 497.446,732.4 493.5,720.5 Z"/></g>
<g><path style="opacity:0.616" fill="#c3a678" d="M 613.5,741.5 C 616.764,743.094 619.431,745.427 621.5,748.5C 618.236,746.906 615.569,744.573 613.5,741.5 Z"/></g>
<g><path style="opacity:0.051" fill="#d5bc91" d="M 1135.5,750.5 C 1137.31,751.63 1139.31,752.296 1141.5,752.5C 1141.19,753.478 1140.52,754.145 1139.5,754.5C 1137.81,753.479 1136.48,752.145 1135.5,750.5 Z"/></g>
<g><path style="opacity:0.987" fill="#666043" d="M 817.5,760.5 C 818.893,762.511 819.56,764.845 819.5,767.5C 818.739,772.379 817.739,777.212 816.5,782C 816.528,783.07 816.861,783.903 817.5,784.5C 817.631,785.376 817.298,786.043 816.5,786.5C 816.167,785 815.833,783.5 815.5,782C 817.136,774.941 817.802,767.775 817.5,760.5 Z"/></g>
<g><path style="opacity:1" fill="#ede5eb" d="M 580.5,763.5 C 581.167,764.167 581.833,764.833 582.5,765.5C 564.562,763.208 548.228,767.208 533.5,777.5C 532.833,777.5 532.5,777.167 532.5,776.5C 546.612,765.636 562.612,761.303 580.5,763.5 Z"/></g>
<g><path style="opacity:0.998" fill="#fdbe9c" d="M 776.5,873.5 C 776.167,874.167 775.833,874.833 775.5,875.5C 775.223,878.448 775.556,881.281 776.5,884C 773.334,886 770.668,888.5 768.5,891.5C 753.309,903.262 738.309,915.262 723.5,927.5C 720.9,928.919 718.4,930.585 716,932.5C 715.667,913.167 715.333,893.833 715,874.5C 705.73,871.947 697.23,867.947 689.5,862.5C 682.886,856.547 678.386,849.547 676,841.5C 675.012,818.833 674.179,796.167 673.5,773.5C 678.844,773.666 684.177,773.499 689.5,773C 692.149,772.548 694.649,771.714 697,770.5C 695.257,780.529 696.757,790.029 701.5,799C 702.833,799.667 704.167,799.667 705.5,799C 715.244,790.824 723.744,791.991 731,802.5C 734.187,815.622 729.353,824.455 716.5,829C 723.923,845.085 734.923,858.085 749.5,868C 757.868,872.838 766.868,874.672 776.5,873.5 Z"/></g>
<g><path style="opacity:1" fill="#5f5101" d="M 801.5,824.5 C 801.833,825.167 802.167,825.833 802.5,826.5C 796.331,824.825 791.164,821.492 787,816.5C 781.959,808.05 777.292,799.383 773,790.5C 766.442,781.637 757.609,777.137 746.5,777C 735.5,776.667 724.5,776.333 713.5,776C 707.847,775.006 702.847,772.673 698.5,769C 702.822,771.139 707.489,772.806 712.5,774C 724.833,774.333 737.167,774.667 749.5,775C 758.98,776.155 766.813,780.322 773,787.5C 778.132,797.761 783.799,807.761 790,817.5C 793.184,821.004 797.018,823.337 801.5,824.5 Z"/></g>
<g><path style="opacity:0.8" fill="#4a585d" d="M 946.5,778.5 C 947.376,778.369 948.043,778.702 948.5,779.5C 941.111,789.188 932.445,797.522 922.5,804.5C 921.479,803.998 921.312,803.332 922,802.5C 930.671,794.995 938.838,786.995 946.5,778.5 Z"/></g>
<g><path style="opacity:1" fill="#5f5101" d="M 701.5,774.5 C 701.56,773.957 701.893,773.624 702.5,773.5C 705.949,775.559 709.616,777.059 713.5,778C 723.542,778.168 733.542,778.835 743.5,780C 755.068,781.897 763.568,788.064 769,798.5C 773.047,808.973 778.047,818.973 784,828.5C 790.274,835.383 798.107,838.549 807.5,838C 800.77,840.075 794.437,839.075 788.5,835C 784.964,831.799 781.797,828.299 779,824.5C 774.185,814.377 769.185,804.377 764,794.5C 759.168,787.162 752.334,782.996 743.5,782C 732.482,781.099 721.482,780.099 710.5,779C 707.216,777.967 704.216,776.467 701.5,774.5 Z"/></g>
<g><path style="opacity:0.108" fill="#e2febb" d="M 1170.5,797.5 C 1177.43,801.246 1184.26,805.246 1191,809.5C 1191.21,813.209 1190.38,816.709 1188.5,820C 1187.52,820.591 1186.85,820.257 1186.5,819C 1187.6,816.54 1188.6,814.04 1189.5,811.5C 1183.5,807.833 1177.5,804.167 1171.5,800.5C 1170.61,799.675 1170.28,798.675 1170.5,797.5 Z"/></g>
<g><path style="opacity:1" fill="#605101" d="M 804.5,812.5 C 804.5,811.833 804.5,811.167 804.5,810.5C 825.931,821.572 843.931,817.572 858.5,798.5C 854.781,807.684 847.781,813.851 837.5,817C 825.793,820.04 814.793,818.54 804.5,812.5 Z"/></g>
<g><path style="opacity:1" fill="#6f839b" d="M 804.5,810.5 C 804.5,811.167 804.5,811.833 804.5,812.5C 804.5,812.833 804.5,813.167 804.5,813.5C 804.5,814.167 804.5,814.833 804.5,815.5C 803.557,825.003 806.223,833.336 812.5,840.5C 812.333,840.833 812.167,841.167 812,841.5C 807.796,837.078 804.63,832.078 802.5,826.5C 802.167,825.833 801.833,825.167 801.5,824.5C 799.438,812.034 802.438,801.034 810.5,791.5C 810.833,791.833 811.167,792.167 811.5,792.5C 806.933,797.633 804.6,803.633 804.5,810.5 Z"/></g>
<g><path style="opacity:1" fill="#fe9a6b" d="M 710.5,805.5 C 719.024,803.86 722.524,807.526 721,816.5C 718.729,821.513 715.229,822.679 710.5,820C 717.499,820.31 720.332,816.81 719,809.5C 716.859,806.679 714.025,805.346 710.5,805.5 Z"/></g>
<g><path style="opacity:1" fill="#605101" d="M 804.5,815.5 C 804.5,814.833 804.5,814.167 804.5,813.5C 822.95,830.081 840.783,829.415 858,811.5C 859.08,809.004 860.414,806.67 862,804.5C 862.654,803.304 863.154,803.304 863.5,804.5C 853.939,823.28 838.939,830.114 818.5,825C 813.285,822.565 808.618,819.399 804.5,815.5 Z"/></g>
<g><path style="opacity:0.863" fill="#48575c" d="M 890.5,823.5 C 893.999,823.259 894.332,824.092 891.5,826C 882.33,832.336 872.497,837.503 862,841.5C 861.5,841.167 861,840.833 860.5,840.5C 870.563,834.806 880.563,829.139 890.5,823.5 Z"/></g>
<g><path style="opacity:0.89" fill="#57543a" d="M 800.5,863.5 C 803.235,862.296 805.235,860.963 806.5,859.5C 813.737,857.024 821.07,855.191 828.5,854C 819.871,859.043 810.538,862.21 800.5,863.5 Z"/></g>
<g><path style="opacity:1" fill="#6d8aa9" d="M 582.5,765.5 C 601.304,791.82 619.97,818.32 638.5,845C 655.739,851.297 672.739,857.13 689.5,862.5C 697.23,867.947 705.73,871.947 715,874.5C 715.333,893.833 715.667,913.167 716,932.5C 718.4,930.585 720.9,928.919 723.5,927.5C 737.116,917.885 750.45,907.885 763.5,897.5C 771.5,905.501 776.334,915.168 778,926.5C 778.104,914.378 773.604,904.378 764.5,896.5C 765.833,894.833 767.167,893.167 768.5,891.5C 770.668,888.5 773.334,886 776.5,884C 775.556,881.281 775.223,878.448 775.5,875.5C 783.448,879.812 791.114,884.645 798.5,890C 815.537,907.234 828.704,927.068 838,949.5C 843.015,964.375 847.515,979.375 851.5,994.5C 844.627,998.521 837.294,1001.69 829.5,1004C 832.558,1004.46 835.558,1004.12 838.5,1003C 843.339,1001.08 848.006,998.912 852.5,996.5C 857.089,1011.1 861.589,1025.77 866,1040.5C 868.393,1044.72 870.56,1049.06 872.5,1053.5C 867.707,1058.9 861.707,1062.23 854.5,1063.5C 848.066,1043.87 840.066,1024.87 830.5,1006.5C 829.675,1005.61 828.675,1005.28 827.5,1005.5C 825.046,996.791 822.379,988.124 819.5,979.5C 818.601,972.008 816.934,964.674 814.5,957.5C 814.167,958 813.833,958.5 813.5,959C 815.074,964.461 816.407,969.961 817.5,975.5C 797.8,971.358 778.133,971.524 758.5,976C 755.602,976.436 753.269,977.603 751.5,979.5C 750.35,978.15 749.683,978.316 749.5,980C 751.921,989.849 754.254,999.682 756.5,1009.5C 732.866,1013.48 711.7,1008.15 693,993.5C 692.601,993.728 692.435,994.062 692.5,994.5C 691.833,994.167 691.167,993.833 690.5,993.5C 690.5,992.833 690.5,992.167 690.5,991.5C 691.117,991.611 691.617,991.944 692,992.5C 698.137,967.204 700.804,941.537 700,915.5C 699.82,930.272 698.487,944.939 696,959.5C 695.617,960.056 695.117,960.389 694.5,960.5C 695.324,957.236 695.658,953.902 695.5,950.5C 686.83,948.001 678.164,944.667 669.5,940.5C 664.593,919.825 665.76,899.492 673,879.5C 675.652,873.822 677.485,868.155 678.5,862.5C 667.794,882.864 663.294,904.531 665,927.5C 665.706,931.325 666.872,934.992 668.5,938.5C 668.376,939.107 668.043,939.44 667.5,939.5C 646.176,930.872 624.51,922.039 602.5,913C 601.429,912.148 600.429,911.315 599.5,910.5C 606.806,885.043 621.14,864.543 642.5,849C 639.199,849.824 636.199,851.49 633.5,854C 616.316,869.217 604.316,887.717 597.5,909.5C 589.727,904.558 583.894,897.892 580,889.5C 563.807,851.567 548.307,814.234 533.5,777.5C 548.228,767.208 564.562,763.208 582.5,765.5 Z"/></g>
<g><path style="opacity:1" fill="#252c3a" d="M 635.5,845.5 C 637.379,845.393 637.712,845.893 636.5,847C 630.984,849.589 625.984,852.922 621.5,857C 620.833,857.667 620.167,857.667 619.5,857C 624.199,852.111 629.533,848.278 635.5,845.5 Z"/></g>
<g><path style="opacity:1" fill="#ebecf3" d="M 601.5,805.5 C 603.857,805.337 606.19,805.503 608.5,806C 589.037,810.06 573.037,819.726 560.5,835C 559.833,835.667 559.167,835.667 558.5,835C 569.846,820.672 584.179,810.839 601.5,805.5 Z"/></g>
<g><path style="opacity:1" fill="#ebecf3" d="M 599.5,910.5 C 598.508,910.672 597.842,910.338 597.5,909.5C 604.316,887.717 616.316,869.217 633.5,854C 636.199,851.49 639.199,849.824 642.5,849C 621.14,864.543 606.806,885.043 599.5,910.5 Z"/></g>
<g><path style="opacity:1" fill="#e6e5ee" d="M 669.5,940.5 C 668.508,940.672 667.842,940.338 667.5,939.5C 668.043,939.44 668.376,939.107 668.5,938.5C 666.872,934.992 665.706,931.325 665,927.5C 663.294,904.531 667.794,882.864 678.5,862.5C 677.485,868.155 675.652,873.822 673,879.5C 665.76,899.492 664.593,919.825 669.5,940.5 Z"/></g>
<g><path style="opacity:1" fill="#2e2e36" d="M 768.5,891.5 C 767.167,893.167 765.833,894.833 764.5,896.5C 763.833,896.5 763.5,896.833 763.5,897.5C 750.45,907.885 737.116,917.885 723.5,927.5C 738.309,915.262 753.309,903.262 768.5,891.5 Z"/></g>
<g><path style="opacity:1" fill="#eaebf2" d="M 764.5,896.5 C 773.604,904.378 778.104,914.378 778,926.5C 776.334,915.168 771.5,905.501 763.5,897.5C 763.5,896.833 763.833,896.5 764.5,896.5 Z"/></g>
<g><path style="opacity:1" fill="#363c55" d="M 767.5,930.5 C 773.509,930.334 779.509,930.501 785.5,931C 789.049,931.774 792.382,933.107 795.5,935C 789.486,933.565 783.319,932.731 777,932.5C 772.675,932.33 768.508,932.997 764.5,934.5C 764.167,934.167 763.833,933.833 763.5,933.5C 764.901,932.479 766.235,931.479 767.5,930.5 Z"/></g>
<g><path style="opacity:1" fill="#ece8ef" d="M 828.5,936.5 C 830.379,936.393 830.712,936.893 829.5,938C 823.252,941.614 816.918,943.78 810.5,944.5C 816.549,941.806 822.549,939.139 828.5,936.5 Z"/></g>
<g><path style="opacity:1" fill="#eae4ec" d="M 699.5,953.5 C 699.56,952.957 699.893,952.624 700.5,952.5C 714.537,958.608 729.204,962.108 744.5,963C 728.617,963.869 713.617,960.702 699.5,953.5 Z"/></g>
<g><path style="opacity:1" fill="#dbe2ef" d="M 817.5,975.5 C 816.726,976.147 815.726,976.48 814.5,976.5C 793.261,973.103 772.261,974.103 751.5,979.5C 753.269,977.603 755.602,976.436 758.5,976C 778.133,971.524 797.8,971.358 817.5,975.5 Z"/></g>
<g><path style="opacity:1" fill="#544552" d="M 819.5,979.5 C 818.833,978.167 818.167,976.833 817.5,975.5C 816.407,969.961 815.074,964.461 813.5,959C 813.833,958.5 814.167,958 814.5,957.5C 816.934,964.674 818.601,972.008 819.5,979.5 Z"/></g>
<g><path style="opacity:0.965" fill="#40414f" d="M 690.5,991.5 C 692.093,981.201 693.426,970.868 694.5,960.5C 695.117,960.389 695.617,960.056 696,959.5C 698.487,944.939 699.82,930.272 700,915.5C 700.804,941.537 698.137,967.204 692,992.5C 691.617,991.944 691.117,991.611 690.5,991.5 Z"/></g>
<g><path style="opacity:1" fill="#6d89a8" d="M 692.5,995.5 C 711.472,1010.33 732.806,1015.33 756.5,1010.5C 761.682,1028.43 765.682,1046.43 768.5,1064.5C 756.545,1060.96 744.545,1057.63 732.5,1054.5C 731.833,1053.83 731.167,1053.17 730.5,1052.5C 730.5,1051.83 730.5,1051.17 730.5,1050.5C 730.369,1049.76 730.536,1049.09 731,1048.5C 741.96,1055.35 753.794,1057.52 766.5,1055C 753.575,1055.78 741.575,1052.95 730.5,1046.5C 729.817,1046.86 729.15,1047.2 728.5,1047.5C 727.5,1046.83 726.5,1046.17 725.5,1045.5C 726.239,1045.63 726.906,1045.46 727.5,1045C 716.514,1038.69 706.681,1030.85 698,1021.5C 693.37,1013.44 691.536,1004.77 692.5,995.5 Z"/></g>
<g><path style="opacity:1" fill="#efe7eb" d="M 851.5,994.5 C 852.338,994.842 852.672,995.508 852.5,996.5C 848.006,998.912 843.339,1001.08 838.5,1003C 835.558,1004.12 832.558,1004.46 829.5,1004C 837.294,1001.69 844.627,998.521 851.5,994.5 Z"/></g>
<g><path style="opacity:1" fill="#e4e8f1" d="M 756.5,1009.5 C 756.5,1009.83 756.5,1010.17 756.5,1010.5C 732.806,1015.33 711.472,1010.33 692.5,995.5C 692.5,995.167 692.5,994.833 692.5,994.5C 692.435,994.062 692.601,993.728 693,993.5C 711.7,1008.15 732.866,1013.48 756.5,1009.5 Z"/></g>
<g><path style="opacity:1" fill="#466382" d="M 827.5,1005.5 C 828.675,1005.28 829.675,1005.61 830.5,1006.5C 840.066,1024.87 848.066,1043.87 854.5,1063.5C 854.5,1063.83 854.5,1064.17 854.5,1064.5C 850.499,1065.5 846.499,1066.5 842.5,1067.5C 837.072,1046.93 832.072,1026.26 827.5,1005.5 Z"/></g>
<g><path style="opacity:0.788" fill="#444e63" d="M 690.5,993.5 C 691.167,993.833 691.833,994.167 692.5,994.5C 692.5,994.833 692.5,995.167 692.5,995.5C 691.536,1004.77 693.37,1013.44 698,1021.5C 706.681,1030.85 716.514,1038.69 727.5,1045C 726.906,1045.46 726.239,1045.63 725.5,1045.5C 714.668,1039.99 705.168,1032.65 697,1023.5C 690.861,1014.32 688.694,1004.32 690.5,993.5 Z"/></g>
<g><path style="opacity:0.999" fill="#febf9c" d="M 644.5,1034.5 C 642.895,1037.38 641.561,1040.38 640.5,1043.5C 637.331,1047.83 634.664,1052.5 632.5,1057.5C 630.44,1060.24 628.774,1063.24 627.5,1066.5C 624.537,1068.79 621.204,1070.62 617.5,1072C 608.117,1075.07 598.784,1078.24 589.5,1081.5C 587.46,1074.56 585.96,1067.56 585,1060.5C 595.714,1050.29 605.881,1039.62 615.5,1028.5C 625.017,1031.24 634.684,1033.24 644.5,1034.5 Z"/></g>
<g><path style="opacity:1" fill="#474951" d="M 689.5,1041.5 C 689.631,1042.38 689.298,1043.04 688.5,1043.5C 686.253,1042.63 683.92,1042.29 681.5,1042.5C 681.158,1041.66 680.492,1041.33 679.5,1041.5C 669.316,1038.13 658.982,1035.13 648.5,1032.5C 645.809,1036.18 643.142,1039.85 640.5,1043.5C 641.561,1040.38 642.895,1037.38 644.5,1034.5C 645.237,1032.7 646.237,1031.03 647.5,1029.5C 661.458,1033.71 675.458,1037.71 689.5,1041.5 Z"/></g>
<g><path style="opacity:1" fill="#6c89a8" d="M 817.5,975.5 C 818.167,976.833 818.833,978.167 819.5,979.5C 827.927,1014.79 836.427,1050.13 845,1085.5C 847.141,1095.6 846.975,1105.6 844.5,1115.5C 825.77,1110.97 809.103,1102.47 794.5,1090C 786.234,1082.24 778.567,1074.07 771.5,1065.5C 769.286,1056.22 767.286,1046.89 765.5,1037.5C 760.01,1018.48 755.344,999.145 751.5,979.5C 772.261,974.103 793.261,973.103 814.5,976.5C 815.726,976.48 816.726,976.147 817.5,975.5 Z"/></g>
<g><path style="opacity:1" fill="#dde5f1" d="M 765.5,1037.5 C 765.62,1036.41 766.287,1035.75 767.5,1035.5C 788.84,1038.07 809.34,1035.07 829,1026.5C 829.167,1026.83 829.333,1027.17 829.5,1027.5C 809.237,1037.25 787.903,1040.59 765.5,1037.5 Z"/></g>
<g><path style="opacity:1" fill="#434b56" d="M 691.5,1042.5 C 704.506,1045.84 717.506,1049.17 730.5,1052.5C 731.167,1053.17 731.833,1053.83 732.5,1054.5C 731.508,1054.33 730.842,1054.66 730.5,1055.5C 716.946,1052.05 703.613,1048.05 690.5,1043.5C 690.624,1042.89 690.957,1042.56 691.5,1042.5 Z"/></g>
<g><path style="opacity:1" fill="#749d3d" d="M 1230.5,1170.5 C 1230.5,1170.17 1230.5,1169.83 1230.5,1169.5C 1233.56,1157.16 1236.72,1144.82 1240,1132.5C 1246.27,1123.73 1253.1,1115.4 1260.5,1107.5C 1256.84,1109.6 1253.34,1112.6 1250,1116.5C 1247.58,1120.34 1244.91,1124.01 1242,1127.5C 1242.83,1120.5 1243.99,1113.5 1245.5,1106.5C 1239.41,1127.05 1233.74,1147.72 1228.5,1168.5C 1224.02,1151.3 1221.35,1133.8 1220.5,1116C 1220.35,1095.38 1224.85,1075.88 1234,1057.5C 1242.55,1045.09 1253.72,1041.59 1267.5,1047C 1274.1,1053.04 1277.93,1060.54 1279,1069.5C 1283.63,1100.32 1276.96,1128.32 1259,1153.5C 1251.1,1162.83 1241.6,1168.5 1230.5,1170.5 Z"/></g>
<g><path style="opacity:1" fill="#e7e4ec" d="M 730.5,1050.5 C 729.094,1050.03 728.427,1049.03 728.5,1047.5C 729.15,1047.2 729.817,1046.86 730.5,1046.5C 741.575,1052.95 753.575,1055.78 766.5,1055C 753.794,1057.52 741.96,1055.35 731,1048.5C 730.536,1049.09 730.369,1049.76 730.5,1050.5 Z"/></g>
<g><path style="opacity:1" fill="#504147" d="M 640.5,1043.5 C 638.841,1048.83 636.174,1053.49 632.5,1057.5C 634.664,1052.5 637.331,1047.83 640.5,1043.5 Z"/></g>
<g><path style="opacity:1" fill="#6e8aa9" d="M 873.5,1055.5 C 884.63,1074.33 894.963,1093.66 904.5,1113.5C 900.332,1115.47 895.999,1117.31 891.5,1119C 881.394,1122.24 871.06,1124.41 860.5,1125.5C 864.933,1119.79 867.267,1113.29 867.5,1106C 864.535,1092.61 860.868,1079.44 856.5,1066.5C 852.167,1067.17 847.833,1067.83 843.5,1068.5C 842.833,1068.5 842.5,1068.17 842.5,1067.5C 846.499,1066.5 850.499,1065.5 854.5,1064.5C 861.747,1064.05 868.081,1061.05 873.5,1055.5 Z"/></g>
<g><path style="opacity:1" fill="#f1e7ea" d="M 872.5,1053.5 C 873.338,1053.84 873.672,1054.51 873.5,1055.5C 868.081,1061.05 861.747,1064.05 854.5,1064.5C 854.5,1064.17 854.5,1063.83 854.5,1063.5C 861.707,1062.23 867.707,1058.9 872.5,1053.5 Z"/></g>
<g><path style="opacity:1" fill="#6d89a8" d="M 679.5,1041.5 C 672.054,1047.12 666.221,1054.12 662,1062.5C 660.306,1067.89 659.139,1073.39 658.5,1079C 658.63,1080.06 659.13,1080.89 660,1081.5C 660.898,1065.04 668.065,1052.04 681.5,1042.5C 683.92,1042.29 686.253,1042.63 688.5,1043.5C 689.298,1043.04 689.631,1042.38 689.5,1041.5C 690.492,1041.33 691.158,1041.66 691.5,1042.5C 690.957,1042.56 690.624,1042.89 690.5,1043.5C 703.613,1048.05 716.946,1052.05 730.5,1055.5C 736.69,1056.88 742.69,1058.54 748.5,1060.5C 756.055,1062.91 763.722,1064.91 771.5,1066.5C 789.113,1092.32 813.113,1109.32 843.5,1117.5C 842.737,1121.91 841.07,1125.91 838.5,1129.5C 835.876,1130.08 835.209,1131.41 836.5,1133.5C 822.671,1145.03 807.005,1148.2 789.5,1143C 736.767,1118.96 684.1,1094.96 631.5,1071C 629.249,1070.25 627.916,1068.75 627.5,1066.5C 628.774,1063.24 630.44,1060.24 632.5,1057.5C 636.174,1053.49 638.841,1048.83 640.5,1043.5C 643.142,1039.85 645.809,1036.18 648.5,1032.5C 658.982,1035.13 669.316,1038.13 679.5,1041.5 Z"/></g>
<g><path style="opacity:1" fill="#2b3551" d="M 751.5,979.5 C 755.344,999.145 760.01,1018.48 765.5,1037.5C 767.286,1046.89 769.286,1056.22 771.5,1065.5C 771.5,1065.83 771.5,1066.17 771.5,1066.5C 763.722,1064.91 756.055,1062.91 748.5,1060.5C 742.69,1058.54 736.69,1056.88 730.5,1055.5C 730.842,1054.66 731.508,1054.33 732.5,1054.5C 744.545,1057.63 756.545,1060.96 768.5,1064.5C 765.682,1046.43 761.682,1028.43 756.5,1010.5C 756.5,1010.17 756.5,1009.83 756.5,1009.5C 754.254,999.682 751.921,989.849 749.5,980C 749.683,978.316 750.35,978.15 751.5,979.5 Z"/></g>
<g><path style="opacity:1" fill="#e9dde3" d="M 679.5,1041.5 C 680.492,1041.33 681.158,1041.66 681.5,1042.5C 668.065,1052.04 660.898,1065.04 660,1081.5C 659.13,1080.89 658.63,1080.06 658.5,1079C 659.139,1073.39 660.306,1067.89 662,1062.5C 666.221,1054.12 672.054,1047.12 679.5,1041.5 Z"/></g>
<g><path style="opacity:1" fill="#1a2e35" d="M 627.5,1066.5 C 627.916,1068.75 629.249,1070.25 631.5,1071C 684.1,1094.96 736.767,1118.96 789.5,1143C 807.005,1148.2 822.671,1145.03 836.5,1133.5C 839.5,1133.5 842.5,1133.5 845.5,1133.5C 853.5,1133.5 861.5,1133.5 869.5,1133.5C 885.265,1137.46 901.265,1140.8 917.5,1143.5C 919.124,1143.36 920.29,1144.03 921,1145.5C 927.292,1162.25 930.459,1179.59 930.5,1197.5C 929.275,1198.15 928.608,1199.32 928.5,1201C 927.893,1204.14 927.559,1207.31 927.5,1210.5C 920.477,1235.02 904.477,1250.19 879.5,1256C 872.783,1256.76 866.117,1256.59 859.5,1255.5C 793.061,1228.45 726.728,1201.11 660.5,1173.5C 656.577,1162.32 651.577,1151.65 645.5,1141.5C 645.167,1141.83 644.833,1142.17 644.5,1142.5C 649.563,1151.96 654.063,1161.62 658,1171.5C 658.5,1237.5 658.667,1303.5 658.5,1369.5C 654.833,1369.5 651.167,1369.5 647.5,1369.5C 634.156,1369.61 620.823,1369.28 607.5,1368.5C 603.761,1368.51 600.428,1369.18 597.5,1370.5C 597.672,1371.49 597.338,1372.16 596.5,1372.5C 594.25,1367.19 592.917,1367.36 592.5,1373C 592.21,1377.26 593.877,1380.42 597.5,1382.5C 597.5,1383.17 597.5,1383.83 597.5,1384.5C 597.167,1384.5 596.833,1384.5 596.5,1384.5C 592.932,1382.59 590.932,1379.59 590.5,1375.5C 590.5,1373.17 590.5,1370.83 590.5,1368.5C 589.5,1368.5 588.5,1368.5 587.5,1368.5C 585.958,1369.3 584.292,1369.63 582.5,1369.5C 578.574,1291.5 574.574,1213.5 570.5,1135.5C 571.833,1130.5 571.833,1125.5 570.5,1120.5C 572.839,1105.44 579.173,1092.44 589.5,1081.5C 598.784,1078.24 608.117,1075.07 617.5,1072C 621.204,1070.62 624.537,1068.79 627.5,1066.5 Z M 712.5,1198.5 C 697.214,1200.25 681.88,1201.59 666.5,1202.5C 664.565,1203.15 662.565,1203.48 660.5,1203.5C 660.334,1194.16 660.5,1184.83 661,1175.5C 678.654,1183.39 696.487,1190.89 714.5,1198C 713.906,1198.46 713.239,1198.63 712.5,1198.5 Z"/></g>
<g><path style="opacity:1" fill="#466382" d="M 860.5,1125.5 C 860.167,1125.5 859.833,1125.5 859.5,1125.5C 853.833,1125.5 848.167,1125.5 842.5,1125.5C 846.66,1117.91 848.66,1109.74 848.5,1101C 847.869,1089.98 846.202,1079.15 843.5,1068.5C 847.833,1067.83 852.167,1067.17 856.5,1066.5C 860.868,1079.44 864.535,1092.61 867.5,1106C 867.267,1113.29 864.933,1119.79 860.5,1125.5 Z"/></g>
<g><path style="opacity:1" fill="#242e48" d="M 819.5,979.5 C 822.379,988.124 825.046,996.791 827.5,1005.5C 832.072,1026.26 837.072,1046.93 842.5,1067.5C 842.5,1068.17 842.833,1068.5 843.5,1068.5C 846.202,1079.15 847.869,1089.98 848.5,1101C 848.66,1109.74 846.66,1117.91 842.5,1125.5C 841.527,1127.14 840.194,1128.47 838.5,1129.5C 841.07,1125.91 842.737,1121.91 843.5,1117.5C 844.338,1117.16 844.672,1116.49 844.5,1115.5C 846.975,1105.6 847.141,1095.6 845,1085.5C 836.427,1050.13 827.927,1014.79 819.5,979.5 Z"/></g>
<g><path style="opacity:1" fill="#759d3d" d="M 1175.5,1260.5 C 1174.71,1259.39 1174.21,1258.06 1174,1256.5C 1172.91,1246.52 1172.08,1236.52 1171.5,1226.5C 1171.22,1219.82 1171.05,1213.15 1171,1206.5C 1176.76,1195.99 1182.26,1185.32 1187.5,1174.5C 1187.15,1173.3 1186.65,1173.3 1186,1174.5C 1181.03,1184.15 1176.03,1193.81 1171,1203.5C 1169.02,1176.18 1169.19,1148.84 1171.5,1121.5C 1171.17,1119.83 1170.83,1118.17 1170.5,1116.5C 1169.4,1131 1168.06,1145.34 1166.5,1159.5C 1163.28,1152.73 1159.78,1146.07 1156,1139.5C 1158.84,1146.86 1162.01,1154.19 1165.5,1161.5C 1166.12,1162.63 1166.96,1163.63 1168,1164.5C 1168.68,1175.51 1168.52,1186.51 1167.5,1197.5C 1168.29,1207.83 1168.96,1218.16 1169.5,1228.5C 1170.94,1239.77 1171.94,1251.11 1172.5,1262.5C 1160.33,1251.45 1152.49,1237.79 1149,1221.5C 1145.86,1194.25 1144.86,1166.92 1146,1139.5C 1146.7,1123.67 1149.7,1108 1155,1092.5C 1157.86,1083.81 1163.69,1078.47 1172.5,1076.5C 1180.6,1078.1 1186.1,1082.76 1189,1090.5C 1206.72,1141.69 1205.38,1192.36 1185,1242.5C 1182.06,1248.72 1178.89,1254.72 1175.5,1260.5 Z"/></g>
<g><path style="opacity:1" fill="#ece7ee" d="M 748.5,1060.5 C 739.938,1076.36 735.105,1093.36 734,1111.5C 733.151,1093.6 737.318,1076.93 746.5,1061.5C 746.957,1060.7 747.624,1060.37 748.5,1060.5 Z"/></g>
<g><path style="opacity:1" fill="#e7e7ef" d="M 771.5,1065.5 C 778.567,1074.07 786.234,1082.24 794.5,1090C 809.103,1102.47 825.77,1110.97 844.5,1115.5C 844.672,1116.49 844.338,1117.16 843.5,1117.5C 813.113,1109.32 789.113,1092.32 771.5,1066.5C 771.5,1066.17 771.5,1065.83 771.5,1065.5 Z"/></g>
<g><path style="opacity:1" fill="#4e512e" d="M 1245.5,1106.5 C 1246.2,1099.11 1245.36,1091.77 1243,1084.5C 1242.33,1081.83 1242.33,1079.17 1243,1076.5C 1244.66,1082.36 1245.99,1088.36 1247,1094.5C 1249.5,1085.51 1252,1076.51 1254.5,1067.5C 1254.83,1068 1255.17,1068.5 1255.5,1069C 1252.63,1081.75 1249.3,1094.25 1245.5,1106.5 Z"/></g>
<g><path style="opacity:1" fill="#38352d" d="M 1245.5,1106.5 C 1243.99,1113.5 1242.83,1120.5 1242,1127.5C 1244.91,1124.01 1247.58,1120.34 1250,1116.5C 1253.34,1112.6 1256.84,1109.6 1260.5,1107.5C 1253.1,1115.4 1246.27,1123.73 1240,1132.5C 1236.72,1144.82 1233.56,1157.16 1230.5,1169.5C 1229.83,1169.5 1229.17,1169.5 1228.5,1169.5C 1228.5,1169.17 1228.5,1168.83 1228.5,1168.5C 1233.74,1147.72 1239.41,1127.05 1245.5,1106.5 Z"/></g>
<g><path style="opacity:1" fill="#6e8aa9" d="M 905.5,1115.5 C 909.007,1121.3 912.34,1127.3 915.5,1133.5C 914.575,1134.56 913.575,1134.56 912.5,1133.5C 898.167,1133.5 883.833,1133.5 869.5,1133.5C 861.5,1133.5 853.5,1133.5 845.5,1133.5C 849.716,1132.36 853.716,1130.53 857.5,1128C 852.067,1128.12 847.067,1127.29 842.5,1125.5C 848.167,1125.5 853.833,1125.5 859.5,1125.5C 858.141,1127.01 858.641,1127.68 861,1127.5C 876.288,1125.14 891.121,1121.14 905.5,1115.5 Z"/></g>
<g><path style="opacity:1" fill="#e6e6ee" d="M 904.5,1113.5 C 905.338,1113.84 905.672,1114.51 905.5,1115.5C 891.121,1121.14 876.288,1125.14 861,1127.5C 858.641,1127.68 858.141,1127.01 859.5,1125.5C 859.833,1125.5 860.167,1125.5 860.5,1125.5C 871.06,1124.41 881.394,1122.24 891.5,1119C 895.999,1117.31 900.332,1115.47 904.5,1113.5 Z"/></g>
<g><path style="opacity:0.698" fill="#5d6a6f" d="M 570.5,1120.5 C 571.833,1125.5 571.833,1130.5 570.5,1135.5C 569.881,1130.36 569.881,1125.36 570.5,1120.5 Z"/></g>
<g><path style="opacity:1" fill="#486584" d="M 842.5,1125.5 C 847.067,1127.29 852.067,1128.12 857.5,1128C 853.716,1130.53 849.716,1132.36 845.5,1133.5C 842.5,1133.5 839.5,1133.5 836.5,1133.5C 835.209,1131.41 835.876,1130.08 838.5,1129.5C 840.194,1128.47 841.527,1127.14 842.5,1125.5 Z"/></g>
<g><path style="opacity:1" fill="#f4bb9a" d="M 869.5,1133.5 C 883.833,1133.5 898.167,1133.5 912.5,1133.5C 914.137,1136.82 915.804,1140.15 917.5,1143.5C 901.265,1140.8 885.265,1137.46 869.5,1133.5 Z"/></g>
<g><path style="opacity:0.978" fill="#729c3b" d="M 1231.5,1257.5 C 1233.9,1253.75 1235.9,1249.75 1237.5,1245.5C 1235.26,1247.65 1233.26,1249.98 1231.5,1252.5C 1231.5,1251.83 1231.17,1251.5 1230.5,1251.5C 1236.87,1203.01 1261.2,1166.84 1303.5,1143C 1310.93,1139.19 1318.76,1137.02 1327,1136.5C 1346.1,1141.67 1353.1,1154 1348,1173.5C 1337.05,1200.91 1320.55,1224.41 1298.5,1244C 1284.02,1254.87 1267.69,1260.37 1249.5,1260.5C 1243.3,1260.42 1237.3,1259.42 1231.5,1257.5 Z"/></g>
<g><path style="opacity:1" fill="#312e36" d="M 1166.5,1159.5 C 1166.67,1160.49 1166.34,1161.16 1165.5,1161.5C 1162.01,1154.19 1158.84,1146.86 1156,1139.5C 1159.78,1146.07 1163.28,1152.73 1166.5,1159.5 Z"/></g>
<g><path style="opacity:1" fill="#69553b" d="M 1313.5,1163.5 C 1316.6,1159.97 1320.27,1157.47 1324.5,1156C 1321.21,1159.14 1317.54,1161.64 1313.5,1163.5 Z"/></g>
<g><path style="opacity:1" fill="#524c38" d="M 1313.5,1163.5 C 1312.42,1165.59 1310.75,1166.92 1308.5,1167.5C 1309.58,1165.41 1311.25,1164.08 1313.5,1163.5 Z"/></g>
<g><path style="opacity:1" fill="#1b2f35" d="M 712.5,1198.5 C 716.806,1199.25 721.14,1200.42 725.5,1202C 767.35,1219.73 809.35,1237.06 851.5,1254C 850.244,1254.42 849.577,1255.25 849.5,1256.5C 811.039,1261.3 772.705,1266.8 734.5,1273C 776.366,1288.01 818.033,1303.51 859.5,1319.5C 860.391,1320.26 861.058,1321.26 861.5,1322.5C 856.697,1341.66 851.364,1360.66 845.5,1379.5C 845.624,1380.11 845.957,1380.44 846.5,1380.5C 846.5,1381.17 846.833,1381.5 847.5,1381.5C 851.652,1384.08 855.985,1383.91 860.5,1381C 858.509,1380.63 856.842,1379.79 855.5,1378.5C 857.565,1378.52 859.565,1378.85 861.5,1379.5C 862.625,1380.35 862.625,1381.35 861.5,1382.5C 857.444,1385.63 852.777,1386.96 847.5,1386.5C 846.817,1384.82 845.483,1384.16 843.5,1384.5C 843.539,1387.09 842.539,1389.09 840.5,1390.5C 819.357,1385.63 798.357,1380.3 777.5,1374.5C 773.715,1372.73 769.715,1371.23 765.5,1370C 763.613,1369.22 761.946,1369.39 760.5,1370.5C 728.803,1362.66 697.137,1354.66 665.5,1346.5C 664.816,1344.81 663.483,1343.81 661.5,1343.5C 660.5,1297.17 660.167,1250.84 660.5,1204.5C 663.082,1204.97 665.082,1204.31 666.5,1202.5C 681.88,1201.59 697.214,1200.25 712.5,1198.5 Z"/></g>
<g><path style="opacity:0.11" fill="#5b696e" d="M 930.5,1197.5 C 929.903,1202.01 928.903,1206.35 927.5,1210.5C 927.559,1207.31 927.893,1204.14 928.5,1201C 928.608,1199.32 929.275,1198.15 930.5,1197.5 Z"/></g>
<g><path style="opacity:0.97" fill="#729c3b" d="M 1143.5,1281.5 C 1141.94,1281.27 1140.6,1280.6 1139.5,1279.5C 1126.95,1264.61 1112.62,1251.94 1096.5,1241.5C 1098.9,1244.22 1101.57,1246.72 1104.5,1249C 1097.95,1247.79 1091.29,1247.46 1084.5,1248C 1092.2,1248.75 1099.87,1249.75 1107.5,1251C 1118.64,1260.3 1129.3,1270.14 1139.5,1280.5C 1140.6,1281.6 1141.27,1282.94 1141.5,1284.5C 1138.86,1286.33 1135.86,1287.49 1132.5,1288C 1116.78,1289.99 1102.44,1286.49 1089.5,1277.5C 1074.1,1264.93 1060.6,1250.6 1049,1234.5C 1043.71,1226.24 1043.38,1217.9 1048,1209.5C 1054.08,1204.44 1060.91,1203.27 1068.5,1206C 1105.05,1219.72 1130.05,1244.89 1143.5,1281.5 Z"/></g>
<g><path style="opacity:1" fill="#474524" d="M 1171.5,1226.5 C 1170.83,1227.17 1170.17,1227.83 1169.5,1228.5C 1168.96,1218.16 1168.29,1207.83 1167.5,1197.5C 1168.52,1186.51 1168.68,1175.51 1168,1164.5C 1166.96,1163.63 1166.12,1162.63 1165.5,1161.5C 1166.34,1161.16 1166.67,1160.49 1166.5,1159.5C 1168.06,1145.34 1169.4,1131 1170.5,1116.5C 1170.83,1118.17 1171.17,1119.83 1171.5,1121.5C 1169.19,1148.84 1169.02,1176.18 1171,1203.5C 1176.03,1193.81 1181.03,1184.15 1186,1174.5C 1186.65,1173.3 1187.15,1173.3 1187.5,1174.5C 1182.26,1185.32 1176.76,1195.99 1171,1206.5C 1171.05,1213.15 1171.22,1219.82 1171.5,1226.5 Z"/></g>
<g><path style="opacity:1" fill="#362e34" d="M 1308.5,1167.5 C 1288.85,1183.49 1271.18,1201.49 1255.5,1221.5C 1256.32,1222.39 1257.32,1222.72 1258.5,1222.5C 1256.73,1223.89 1254.73,1225.06 1252.5,1226C 1249.64,1229.69 1246.64,1233.19 1243.5,1236.5C 1260.85,1209.5 1282.52,1186.5 1308.5,1167.5 Z"/></g>
<g><path style="opacity:1" fill="#37555f" d="M 859.5,1255.5 C 856.061,1255.25 852.728,1255.59 849.5,1256.5C 849.577,1255.25 850.244,1254.42 851.5,1254C 809.35,1237.06 767.35,1219.73 725.5,1202C 721.14,1200.42 716.806,1199.25 712.5,1198.5C 713.239,1198.63 713.906,1198.46 714.5,1198C 696.487,1190.89 678.654,1183.39 661,1175.5C 660.5,1184.83 660.334,1194.16 660.5,1203.5C 662.565,1203.48 664.565,1203.15 666.5,1202.5C 665.082,1204.31 663.082,1204.97 660.5,1204.5C 660.167,1250.84 660.5,1297.17 661.5,1343.5C 663.483,1343.81 664.816,1344.81 665.5,1346.5C 664.167,1346.17 662.833,1345.83 661.5,1345.5C 661.44,1344.96 661.107,1344.62 660.5,1344.5C 659.502,1353.14 659.169,1361.81 659.5,1370.5C 657.611,1371.74 655.611,1371.74 653.5,1370.5C 651.265,1370.79 649.265,1370.46 647.5,1369.5C 651.167,1369.5 654.833,1369.5 658.5,1369.5C 658.667,1303.5 658.5,1237.5 658,1171.5C 654.063,1161.62 649.563,1151.96 644.5,1142.5C 644.833,1142.17 645.167,1141.83 645.5,1141.5C 651.577,1151.65 656.577,1162.32 660.5,1173.5C 726.728,1201.11 793.061,1228.45 859.5,1255.5 Z M 712.5,1198.5 C 697.214,1200.25 681.88,1201.59 666.5,1202.5C 664.565,1203.15 662.565,1203.48 660.5,1203.5C 660.334,1194.16 660.5,1184.83 661,1175.5C 678.654,1183.39 696.487,1190.89 714.5,1198C 713.906,1198.46 713.239,1198.63 712.5,1198.5 Z"/></g>
<g><path style="opacity:1" fill="#4d5f33" d="M 1292.5,1213.5 C 1299.34,1212.18 1306.34,1212.18 1313.5,1213.5C 1309.89,1214.49 1306.23,1214.82 1302.5,1214.5C 1299.38,1213.52 1296.04,1213.19 1292.5,1213.5 Z"/></g>
<g><path style="opacity:1" fill="#3d3432" d="M 1292.5,1213.5 C 1296.04,1213.19 1299.38,1213.52 1302.5,1214.5C 1291.7,1214.91 1281.03,1216.25 1270.5,1218.5C 1277.49,1215.92 1284.83,1214.25 1292.5,1213.5 Z"/></g>
<g><path style="opacity:1" fill="#443931" d="M 1270.5,1218.5 C 1266.92,1220.81 1262.92,1222.14 1258.5,1222.5C 1262,1219.95 1266,1218.62 1270.5,1218.5 Z"/></g>
<g><path style="opacity:0.859" fill="#5f7067" d="M 1228.5,1169.5 C 1229.17,1169.5 1229.83,1169.5 1230.5,1169.5C 1230.5,1169.83 1230.5,1170.17 1230.5,1170.5C 1223.74,1200 1216.74,1229.33 1209.5,1258.5C 1209.16,1257.66 1208.49,1257.33 1207.5,1257.5C 1213.74,1227.97 1220.74,1198.64 1228.5,1169.5 Z"/></g>
<g><path style="opacity:1" fill="#5b453b" d="M 1086.5,1234.5 C 1082.56,1232.86 1078.89,1230.69 1075.5,1228C 1076.91,1227.68 1078.24,1228.02 1079.5,1229C 1082.27,1230.37 1084.6,1232.2 1086.5,1234.5 Z"/></g>
<g><path style="opacity:1" fill="#4c3e38" d="M 1086.5,1234.5 C 1090.54,1235.85 1093.87,1238.18 1096.5,1241.5C 1092.57,1239.88 1089.23,1237.55 1086.5,1234.5 Z"/></g>
<g><path style="opacity:1" fill="#292b27" d="M 1243.5,1236.5 C 1242.28,1240.05 1240.28,1243.05 1237.5,1245.5C 1238.72,1241.95 1240.72,1238.95 1243.5,1236.5 Z"/></g>
<g><path style="opacity:1" fill="#3a3031" d="M 1096.5,1241.5 C 1112.62,1251.94 1126.95,1264.61 1139.5,1279.5C 1139.5,1279.83 1139.5,1280.17 1139.5,1280.5C 1129.3,1270.14 1118.64,1260.3 1107.5,1251C 1099.87,1249.75 1092.2,1248.75 1084.5,1248C 1091.29,1247.46 1097.95,1247.79 1104.5,1249C 1101.57,1246.72 1098.9,1244.22 1096.5,1241.5 Z"/></g>
<g><path style="opacity:1" fill="#2c2c27" d="M 1237.5,1245.5 C 1235.9,1249.75 1233.9,1253.75 1231.5,1257.5C 1230.51,1256 1230.51,1254.33 1231.5,1252.5C 1233.26,1249.98 1235.26,1247.65 1237.5,1245.5 Z"/></g>
<g><path style="opacity:1" fill="#363730" d="M 1171.5,1226.5 C 1172.08,1236.52 1172.91,1246.52 1174,1256.5C 1174.21,1258.06 1174.71,1259.39 1175.5,1260.5C 1175.5,1261.83 1175.5,1263.17 1175.5,1264.5C 1174.78,1264.92 1174.28,1265.58 1174,1266.5C 1173.79,1264.94 1173.29,1263.61 1172.5,1262.5C 1171.94,1251.11 1170.94,1239.77 1169.5,1228.5C 1170.17,1227.83 1170.83,1227.17 1171.5,1226.5 Z"/></g>
<g><path style="opacity:0.682" fill="#586568" d="M 1230.5,1251.5 C 1231.17,1251.5 1231.5,1251.83 1231.5,1252.5C 1230.51,1254.33 1230.51,1256 1231.5,1257.5C 1215.09,1286 1203.42,1316.33 1196.5,1348.5C 1198.62,1348.67 1200.62,1348.34 1202.5,1347.5C 1200.72,1349.34 1198.39,1350.01 1195.5,1349.5C 1195.77,1347.9 1195.43,1346.57 1194.5,1345.5C 1194.5,1344.5 1194.5,1343.5 1194.5,1342.5C 1201.77,1312.54 1213.27,1284.2 1229,1257.5C 1229.5,1255.48 1230,1253.48 1230.5,1251.5 Z"/></g>
<g><path style="opacity:0.999" fill="#749d3d" d="M 1253.5,1307.5 C 1253.83,1306.83 1254.17,1306.17 1254.5,1305.5C 1270.77,1298.11 1287.77,1293.11 1305.5,1290.5C 1307.12,1291.04 1308.78,1291.37 1310.5,1291.5C 1310.61,1290.88 1310.94,1290.38 1311.5,1290C 1327.53,1288.68 1343.36,1289.85 1359,1293.5C 1360.17,1293.33 1361.33,1293.17 1362.5,1293C 1342.95,1287.33 1323.29,1286.16 1303.5,1289.5C 1288.59,1291.47 1274.25,1295.47 1260.5,1301.5C 1259.89,1301.38 1259.56,1301.04 1259.5,1300.5C 1288.1,1276.47 1320.77,1268.31 1357.5,1276C 1367.16,1278.34 1375.33,1283.17 1382,1290.5C 1387.74,1301.04 1385.57,1309.54 1375.5,1316C 1349.5,1328.67 1322.17,1333.33 1293.5,1330C 1281.2,1328.19 1270.2,1323.52 1260.5,1316C 1257.58,1313.59 1255.25,1310.76 1253.5,1307.5 Z"/></g>
<g><path style="opacity:0.753" fill="#5c6a6f" d="M 1207.5,1257.5 C 1208.49,1257.33 1209.16,1257.66 1209.5,1258.5C 1203.47,1286.31 1198.47,1314.31 1194.5,1342.5C 1193.17,1343.83 1193.17,1345.17 1194.5,1346.5C 1194.12,1347.93 1193.12,1348.76 1191.5,1349C 1189.93,1349.76 1188.6,1349.6 1187.5,1348.5C 1188.82,1348.67 1189.99,1348.34 1191,1347.5C 1195.32,1317.27 1200.82,1287.27 1207.5,1257.5 Z"/></g>
<g><path style="opacity:1" fill="#504b34" d="M 1310.5,1291.5 C 1308.78,1291.37 1307.12,1291.04 1305.5,1290.5C 1305.16,1289.66 1304.49,1289.33 1303.5,1289.5C 1323.29,1286.16 1342.95,1287.33 1362.5,1293C 1361.33,1293.17 1360.17,1293.33 1359,1293.5C 1343.36,1289.85 1327.53,1288.68 1311.5,1290C 1310.94,1290.38 1310.61,1290.88 1310.5,1291.5 Z"/></g>
<g><path style="opacity:1" fill="#3a2e3a" d="M 1303.5,1289.5 C 1304.49,1289.33 1305.16,1289.66 1305.5,1290.5C 1287.77,1293.11 1270.77,1298.11 1254.5,1305.5C 1254.83,1304.83 1255.17,1304.17 1255.5,1303.5C 1256.8,1302.51 1258.13,1301.51 1259.5,1300.5C 1259.56,1301.04 1259.89,1301.38 1260.5,1301.5C 1274.25,1295.47 1288.59,1291.47 1303.5,1289.5 Z"/></g>
<g><path style="opacity:1" fill="#2a3a0c" d="M 1310.5,1291.5 C 1315.46,1293.32 1319.79,1296.15 1323.5,1300C 1325.41,1302.4 1327.08,1304.9 1328.5,1307.5C 1322.77,1301.77 1316.77,1296.43 1310.5,1291.5 Z"/></g>
<g><path style="opacity:1" fill="#3c3a1b" d="M 1328.5,1307.5 C 1329.46,1307.95 1330.29,1308.62 1331,1309.5C 1332.71,1313.08 1334.54,1316.58 1336.5,1320C 1335.67,1320.69 1335,1320.52 1334.5,1319.5C 1332.47,1315.45 1330.47,1311.45 1328.5,1307.5 Z"/></g>
<g><path style="opacity:0.999" fill="#6e8aa8" d="M 859.5,1319.5 C 864.174,1320.14 864.84,1322.31 861.5,1326C 873.986,1332.3 887.152,1338.14 901,1343.5C 908.816,1348.98 916.65,1354.31 924.5,1359.5C 913.124,1384.59 901.457,1409.59 889.5,1434.5C 880.075,1436.09 870.575,1437.09 861,1437.5C 858.639,1437.5 856.473,1437.16 854.5,1436.5C 859.365,1432.31 865.032,1429.65 871.5,1428.5C 871.176,1414.25 871.51,1400.09 872.5,1386C 870.685,1385.24 869.019,1384.41 867.5,1383.5C 865.565,1382.85 863.565,1382.52 861.5,1382.5C 862.625,1381.35 862.625,1380.35 861.5,1379.5C 858.23,1374.1 857.73,1368.44 860,1362.5C 860.414,1362.04 860.914,1361.71 861.5,1361.5C 862.33,1367.14 862.83,1372.8 863,1378.5C 863.333,1378.17 863.667,1377.83 864,1377.5C 864.667,1371.83 864.667,1366.17 864,1360.5C 860.617,1359.48 858.283,1360.81 857,1364.5C 856.187,1368.66 856.687,1372.66 858.5,1376.5C 854.091,1376.87 850.091,1378.2 846.5,1380.5C 845.957,1380.44 845.624,1380.11 845.5,1379.5C 851.364,1360.66 856.697,1341.66 861.5,1322.5C 861.058,1321.26 860.391,1320.26 859.5,1319.5 Z"/></g>
<g><path style="opacity:0.875" fill="#57676c" d="M 1255.5,1303.5 C 1255.17,1304.17 1254.83,1304.83 1254.5,1305.5C 1254.17,1306.17 1253.83,1306.83 1253.5,1307.5C 1234.09,1317.21 1217.76,1330.71 1204.5,1348C 1217.51,1348.17 1230.51,1348.67 1243.5,1349.5C 1242.93,1351.98 1242.27,1354.32 1241.5,1356.5C 1241.5,1354.17 1241.5,1351.83 1241.5,1349.5C 1228.25,1350.12 1215.25,1349.45 1202.5,1347.5C 1216.56,1328.43 1234.23,1313.77 1255.5,1303.5 Z"/></g>
<g><path style="opacity:0.616" fill="#5e6d70" d="M 1172.5,1262.5 C 1173.29,1263.61 1173.79,1264.94 1174,1266.5C 1174.28,1265.58 1174.78,1264.92 1175.5,1264.5C 1178.63,1292.63 1182.63,1320.63 1187.5,1348.5C 1186.5,1348.59 1185.67,1348.25 1185,1347.5C 1170.74,1349.47 1156.24,1350.14 1141.5,1349.5C 1142.21,1352.79 1142.54,1356.12 1142.5,1359.5C 1141.31,1356.05 1140.65,1352.39 1140.5,1348.5C 1154.85,1348.83 1169.18,1348.5 1183.5,1347.5C 1172.71,1324.23 1158.71,1303.23 1141.5,1284.5C 1141.27,1282.94 1140.6,1281.6 1139.5,1280.5C 1139.5,1280.17 1139.5,1279.83 1139.5,1279.5C 1140.6,1280.6 1141.94,1281.27 1143.5,1281.5C 1159.74,1300.29 1173.24,1320.96 1184,1343.5C 1180.17,1319.02 1176.34,1294.52 1172.5,1270C 1172.74,1267.71 1172.74,1265.21 1172.5,1262.5 Z"/></g>
<g><path style="opacity:0.333" fill="#a7b5ba" d="M 661.5,1345.5 C 660.833,1353.83 660.167,1362.17 659.5,1370.5C 659.169,1361.81 659.502,1353.14 660.5,1344.5C 661.107,1344.62 661.44,1344.96 661.5,1345.5 Z"/></g>
<g><path style="opacity:1" fill="#375963" d="M 1194.5,1345.5 C 1195.43,1346.57 1195.77,1347.9 1195.5,1349.5C 1198.39,1350.01 1200.72,1349.34 1202.5,1347.5C 1215.25,1349.45 1228.25,1350.12 1241.5,1349.5C 1241.5,1351.83 1241.5,1354.17 1241.5,1356.5C 1241.27,1361.24 1240.6,1365.91 1239.5,1370.5C 1237.74,1371.55 1237.08,1373.22 1237.5,1375.5C 1206.83,1375.5 1176.17,1375.5 1145.5,1375.5C 1145.75,1371.54 1145.08,1367.88 1143.5,1364.5C 1142.55,1363.08 1142.22,1361.41 1142.5,1359.5C 1142.54,1356.12 1142.21,1352.79 1141.5,1349.5C 1156.24,1350.14 1170.74,1349.47 1185,1347.5C 1185.67,1348.25 1186.5,1348.59 1187.5,1348.5C 1188.6,1349.6 1189.93,1349.76 1191.5,1349C 1193.12,1348.76 1194.12,1347.93 1194.5,1346.5C 1194.5,1346.17 1194.5,1345.83 1194.5,1345.5 Z"/></g>
<g><path style="opacity:1" fill="#b5d2f1" d="M 898.5,1358.5 C 904.989,1357.63 907.489,1360.3 906,1366.5C 902.667,1370.5 899.333,1370.5 896,1366.5C 895.018,1363.23 895.851,1360.56 898.5,1358.5 Z"/></g>
<g><path style="opacity:1" fill="#ede2e4" d="M 596.5,1372.5 C 597.414,1375.73 597.747,1379.06 597.5,1382.5C 593.877,1380.42 592.21,1377.26 592.5,1373C 592.917,1367.36 594.25,1367.19 596.5,1372.5 Z"/></g>
<g><path style="opacity:0.969" fill="#b4cde9" d="M 924.5,1359.5 C 926.978,1361.14 929.311,1362.98 931.5,1365C 929.25,1369.07 927.25,1373.24 925.5,1377.5C 924.167,1377.83 924.167,1378.17 925.5,1378.5C 924.248,1380 923.248,1381.67 922.5,1383.5C 921.167,1383.83 921.167,1384.17 922.5,1384.5C 913.994,1400.18 905.994,1416.18 898.5,1432.5C 897.167,1432.83 897.167,1433.17 898.5,1433.5C 897.248,1435 896.248,1436.67 895.5,1438.5C 894.167,1438.83 894.167,1439.17 895.5,1439.5C 895.047,1440.46 894.381,1441.29 893.5,1442C 943.166,1442.5 992.832,1442.67 1042.5,1442.5C 992.325,1442.83 942.325,1443.83 892.5,1445.5C 877.847,1444.44 863.181,1444.44 848.5,1445.5C 848.5,1444.5 848.5,1443.5 848.5,1442.5C 849.522,1439.48 851.522,1437.48 854.5,1436.5C 856.473,1437.16 858.639,1437.5 861,1437.5C 870.575,1437.09 880.075,1436.09 889.5,1434.5C 901.457,1409.59 913.124,1384.59 924.5,1359.5 Z"/></g>
<g><path style="opacity:1" fill="#4c6886" d="M 647.5,1369.5 C 649.265,1370.46 651.265,1370.79 653.5,1370.5C 653.5,1371.5 653.5,1372.5 653.5,1373.5C 640.068,1374.15 626.735,1374.82 613.5,1375.5C 608.1,1374.78 603.6,1376.45 600,1380.5C 599.465,1376.96 598.632,1373.63 597.5,1370.5C 600.428,1369.18 603.761,1368.51 607.5,1368.5C 620.823,1369.28 634.156,1369.61 647.5,1369.5 Z"/></g>
<g><path style="opacity:1" fill="#1f2f4c" d="M 861.5,1379.5 C 859.565,1378.85 857.565,1378.52 855.5,1378.5C 852.62,1378.94 849.954,1379.94 847.5,1381.5C 846.833,1381.5 846.5,1381.17 846.5,1380.5C 850.091,1378.2 854.091,1376.87 858.5,1376.5C 856.687,1372.66 856.187,1368.66 857,1364.5C 858.283,1360.81 860.617,1359.48 864,1360.5C 864.667,1366.17 864.667,1371.83 864,1377.5C 863.667,1377.83 863.333,1378.17 863,1378.5C 862.83,1372.8 862.33,1367.14 861.5,1361.5C 860.914,1361.71 860.414,1362.04 860,1362.5C 857.73,1368.44 858.23,1374.1 861.5,1379.5 Z"/></g>
<g><path style="opacity:0.161" fill="#b2c6d9" d="M 587.5,1368.5 C 588.5,1368.5 589.5,1368.5 590.5,1368.5C 590.5,1370.83 590.5,1373.17 590.5,1375.5C 589.895,1373.03 588.895,1370.69 587.5,1368.5 Z"/></g>
<g><path style="opacity:0.161" fill="#5b696e" d="M 760.5,1370.5 C 761.946,1369.39 763.613,1369.22 765.5,1370C 769.715,1371.23 773.715,1372.73 777.5,1374.5C 771.713,1373.57 766.046,1372.24 760.5,1370.5 Z"/></g>
<g><path style="opacity:0.999" fill="#6e8aa9" d="M 653.5,1373.5 C 653.198,1394.18 652.532,1414.85 651.5,1435.5C 614.663,1435.83 577.996,1435.5 541.5,1434.5C 552.028,1427.82 562.862,1422.48 574,1418.5C 577.537,1417.35 580.703,1415.68 583.5,1413.5C 586.134,1416 588.3,1419 590,1422.5C 590.623,1418.41 589.123,1415.41 585.5,1413.5C 586.397,1412.4 587.23,1412.4 588,1413.5C 591.774,1412.21 594.607,1410.55 596.5,1408.5C 596.5,1400.5 596.5,1392.5 596.5,1384.5C 596.833,1384.5 597.167,1384.5 597.5,1384.5C 603.268,1384.56 608.601,1383.06 613.5,1380C 614.728,1378.51 614.728,1377.01 613.5,1375.5C 626.735,1374.82 640.068,1374.15 653.5,1373.5 Z"/></g>
<g><path style="opacity:1" fill="#282d47" d="M 867.5,1383.5 C 866.74,1378.69 868.407,1375.02 872.5,1372.5C 872.833,1372.83 873.167,1373.17 873.5,1373.5C 870.923,1376.71 868.923,1380.04 867.5,1383.5 Z"/></g>
<g><path style="opacity:0.592" fill="#607a83" d="M 1143.5,1364.5 C 1145.08,1367.88 1145.75,1371.54 1145.5,1375.5C 1176.17,1375.5 1206.83,1375.5 1237.5,1375.5C 1237.08,1373.22 1237.74,1371.55 1239.5,1370.5C 1239.48,1372.56 1239.15,1374.56 1238.5,1376.5C 1238.17,1376.5 1237.83,1376.5 1237.5,1376.5C 1206.5,1376.5 1175.5,1376.5 1144.5,1376.5C 1144.35,1372.48 1144.02,1368.48 1143.5,1364.5 Z"/></g>
<g><path style="opacity:1" fill="#212e4b" d="M 597.5,1370.5 C 598.632,1373.63 599.465,1376.96 600,1380.5C 603.6,1376.45 608.1,1374.78 613.5,1375.5C 614.728,1377.01 614.728,1378.51 613.5,1380C 608.601,1383.06 603.268,1384.56 597.5,1384.5C 597.5,1383.83 597.5,1383.17 597.5,1382.5C 597.747,1379.06 597.414,1375.73 596.5,1372.5C 597.338,1372.16 597.672,1371.49 597.5,1370.5 Z"/></g>
<g><path style="opacity:0.004" fill="#c8e3fe" d="M 925.5,1377.5 C 926.833,1378.17 926.833,1378.17 925.5,1377.5 Z"/></g>
<g><path style="opacity:1" fill="#e5e6e9" d="M 855.5,1378.5 C 856.842,1379.79 858.509,1380.63 860.5,1381C 855.985,1383.91 851.652,1384.08 847.5,1381.5C 849.954,1379.94 852.62,1378.94 855.5,1378.5 Z"/></g>
<g><path style="opacity:1" fill="#73829f" d="M 607.5,1377.5 C 609.199,1377.34 610.866,1377.51 612.5,1378C 608.66,1381.09 604.326,1382.76 599.5,1383C 602.091,1380.88 604.758,1379.05 607.5,1377.5 Z"/></g>
<g><path style="opacity:1" fill="#242e4a" d="M 874.5,1378.5 C 877.187,1378.34 879.854,1378.5 882.5,1379C 878.094,1379.12 874.594,1380.95 872,1384.5C 871.333,1383.5 871.333,1382.5 872,1381.5C 873.045,1380.63 873.878,1379.63 874.5,1378.5 Z"/></g>
<g><path style="opacity:0.027" fill="#ced0d2" d="M 1237.5,1376.5 C 1237.83,1376.5 1238.17,1376.5 1238.5,1376.5C 1238.94,1376.43 1239.27,1376.6 1239.5,1377C 1238.93,1379.68 1237.93,1382.18 1236.5,1384.5C 1236.01,1381.89 1236.34,1379.22 1237.5,1376.5 Z"/></g>
<g><path style="opacity:0.004" fill="#c8e3fe" d="M 922.5,1383.5 C 923.833,1384.17 923.833,1384.17 922.5,1383.5 Z"/></g>
<g><path style="opacity:0.708" fill="#59666c" d="M 1236.5,1387.5 C 1207.17,1387.5 1177.83,1387.5 1148.5,1387.5C 1148.5,1388.83 1148.5,1390.17 1148.5,1391.5C 1147.21,1389.64 1147.21,1387.64 1148.5,1385.5C 1177.5,1386.83 1206.5,1386.83 1235.5,1385.5C 1236.3,1385.96 1236.63,1386.62 1236.5,1387.5 Z"/></g>
<g><path style="opacity:0.93" fill="#1a2e35" d="M 1236.5,1387.5 C 1236.79,1389.74 1236.46,1391.74 1235.5,1393.5C 1232.78,1398.98 1232.11,1404.65 1233.5,1410.5C 1231.68,1418.4 1230.18,1426.4 1229,1434.5C 1228.39,1437.55 1226.89,1440.05 1224.5,1442C 1238.5,1442.5 1252.5,1442.67 1266.5,1442.5C 1240.68,1444.16 1214.68,1445.16 1188.5,1445.5C 1089.83,1445.5 991.167,1445.5 892.5,1445.5C 942.325,1443.83 992.325,1442.83 1042.5,1442.5C 1082.17,1442.67 1121.83,1442.5 1161.5,1442C 1159.45,1441.07 1157.95,1439.57 1157,1437.5C 1154.63,1427.59 1152.79,1417.59 1151.5,1407.5C 1151.88,1402.11 1150.88,1397.11 1148.5,1392.5C 1148.5,1392.17 1148.5,1391.83 1148.5,1391.5C 1148.5,1390.17 1148.5,1388.83 1148.5,1387.5C 1177.83,1387.5 1207.17,1387.5 1236.5,1387.5 Z"/></g>
<g><path style="opacity:1" fill="#657275" d="M 847.5,1386.5 C 846.85,1386.2 846.183,1385.86 845.5,1385.5C 844.232,1387.3 843.565,1389.3 843.5,1391.5C 842.209,1391.74 841.209,1391.4 840.5,1390.5C 842.539,1389.09 843.539,1387.09 843.5,1384.5C 845.483,1384.16 846.817,1384.82 847.5,1386.5 Z"/></g>
<g><path style="opacity:1" fill="#37324c" d="M 600.5,1393.5 C 603.659,1393.48 606.326,1394.65 608.5,1397C 604.849,1396.98 601.182,1396.48 597.5,1395.5C 598.602,1394.82 599.602,1394.16 600.5,1393.5 Z"/></g>
<g><path style="opacity:1" fill="#212d49" d="M 876.5,1392.5 C 887.038,1393.6 887.038,1394.43 876.5,1395C 875.646,1396.02 874.646,1396.86 873.5,1397.5C 872.479,1397 872.312,1396.33 873,1395.5C 874.145,1394.36 875.312,1393.36 876.5,1392.5 Z"/></g>
<g><path style="opacity:0.843" fill="#616e73" d="M 1148.5,1392.5 C 1150.88,1397.11 1151.88,1402.11 1151.5,1407.5C 1150.14,1402.7 1149.14,1397.7 1148.5,1392.5 Z"/></g>
<g><path style="opacity:0.651" fill="#616e73" d="M 1235.5,1393.5 C 1234.72,1399.15 1234.06,1404.82 1233.5,1410.5C 1232.11,1404.65 1232.78,1398.98 1235.5,1393.5 Z"/></g>
<g><path style="opacity:1" fill="#262b46" d="M 874.5,1405.5 C 878.219,1405 881.553,1405.84 884.5,1408C 880.85,1407.26 877.183,1407.43 873.5,1408.5C 873.167,1408.33 872.833,1408.17 872.5,1408C 873.381,1407.29 874.047,1406.46 874.5,1405.5 Z"/></g>
<g><path style="opacity:1" fill="#b6d2f1" d="M 629.5,1405.5 C 635.263,1405.78 636.93,1408.62 634.5,1414C 627.416,1414.48 625.749,1411.64 629.5,1405.5 Z"/></g>
<g><path style="opacity:1" fill="#323138" d="M 596.5,1408.5 C 600.293,1409.24 603.293,1411.24 605.5,1414.5C 604.998,1415.52 604.332,1415.69 603.5,1415C 602.023,1412.85 600.023,1411.52 597.5,1411C 596.748,1410.33 596.414,1409.5 596.5,1408.5 Z"/></g>
<g><path style="opacity:1" fill="#232b46" d="M 583.5,1413.5 C 584.167,1413.5 584.833,1413.5 585.5,1413.5C 589.123,1415.41 590.623,1418.41 590,1422.5C 588.3,1419 586.134,1416 583.5,1413.5 Z"/></g>
<g><path style="opacity:1" fill="#1e2a39" d="M 572.5,1420.5 C 573.189,1419.23 574.023,1419.23 575,1420.5C 576.373,1422.7 576.706,1425.03 576,1427.5C 575.102,1424.93 573.935,1422.6 572.5,1420.5 Z"/></g>
<g><path style="opacity:0.004" fill="#bbd9f7" d="M 898.5,1432.5 C 899.833,1433.17 899.833,1433.17 898.5,1432.5 Z"/></g>
<g><path style="opacity:0.995" fill="#b2ceeb" d="M 541.5,1434.5 C 577.996,1435.5 614.663,1435.83 651.5,1435.5C 651.5,1437.83 651.5,1440.17 651.5,1442.5C 651.5,1442.83 651.5,1443.17 651.5,1443.5C 641.167,1443.5 630.833,1443.5 620.5,1443.5C 565.997,1443.83 511.664,1443.5 457.5,1442.5C 490.168,1442.67 522.835,1442.5 555.5,1442C 549.141,1441.83 542.807,1441.33 536.5,1440.5C 538.219,1438.46 539.886,1436.46 541.5,1434.5 Z"/></g>
<g><path style="opacity:0.004" fill="#bddbf9" d="M 895.5,1438.5 C 896.833,1439.17 896.833,1439.17 895.5,1438.5 Z"/></g>
<g><path style="opacity:0.188" fill="#9ba2a5" d="M 123.5,1442.5 C 136.969,1444.16 150.636,1445.16 164.5,1445.5C 128.817,1445.24 93.1502,1445.24 57.5,1445.5C 57.5,1444.5 57.5,1443.5 57.5,1442.5C 79.5,1442.5 101.5,1442.5 123.5,1442.5 Z"/></g>
<g><path style="opacity:0.157" fill="#5b686e" d="M 123.5,1442.5 C 160.167,1442.5 196.833,1442.5 233.5,1442.5C 233.5,1442.83 233.5,1443.17 233.5,1443.5C 259.5,1444.17 285.5,1444.83 311.5,1445.5C 262.5,1445.5 213.5,1445.5 164.5,1445.5C 150.636,1445.16 136.969,1444.16 123.5,1442.5 Z"/></g>
<g><path style="opacity:0.421" fill="#172a33" d="M 233.5,1443.5 C 233.5,1443.17 233.5,1442.83 233.5,1442.5C 308.167,1442.5 382.833,1442.5 457.5,1442.5C 511.664,1443.5 565.997,1443.83 620.5,1443.5C 628.167,1444.17 635.833,1444.83 643.5,1445.5C 533.167,1445.5 422.833,1445.5 312.5,1445.5C 286.521,1443.51 260.188,1442.84 233.5,1443.5 Z"/></g>
<g><path style="opacity:0.369" fill="#9aa5ae" d="M 651.5,1443.5 C 651.5,1443.17 651.5,1442.83 651.5,1442.5C 717.167,1442.5 782.833,1442.5 848.5,1442.5C 848.5,1443.5 848.5,1444.5 848.5,1445.5C 848.167,1445.5 847.833,1445.5 847.5,1445.5C 782.509,1443.5 717.175,1442.84 651.5,1443.5 Z"/></g>
<g><path style="opacity:0.318" fill="#5b686e" d="M 1266.5,1442.5 C 1303.17,1442.5 1339.83,1442.5 1376.5,1442.5C 1363.03,1444.16 1349.36,1445.16 1335.5,1445.5C 1286.5,1445.5 1237.5,1445.5 1188.5,1445.5C 1214.68,1445.16 1240.68,1444.16 1266.5,1442.5 Z"/></g>
<g><path style="opacity:0.192" fill="#9ba2a5" d="M 1376.5,1442.5 C 1398.5,1442.5 1420.5,1442.5 1442.5,1442.5C 1442.5,1443.5 1442.5,1444.5 1442.5,1445.5C 1406.85,1445.24 1371.18,1445.24 1335.5,1445.5C 1349.36,1445.16 1363.03,1444.16 1376.5,1442.5 Z"/></g>
<g><path style="opacity:0.847" fill="#384950" d="M 233.5,1443.5 C 260.188,1442.84 286.521,1443.51 312.5,1445.5C 312.167,1445.5 311.833,1445.5 311.5,1445.5C 285.5,1444.83 259.5,1444.17 233.5,1443.5 Z"/></g>
<g><path style="opacity:0.909" fill="#7b8aa1" d="M 620.5,1443.5 C 630.833,1443.5 641.167,1443.5 651.5,1443.5C 651.5,1444.17 651.5,1444.83 651.5,1445.5C 649.043,1445.21 646.376,1445.21 643.5,1445.5C 635.833,1444.83 628.167,1444.17 620.5,1443.5 Z"/></g>
<g><path style="opacity:0.184" fill="#132832" d="M 651.5,1443.5 C 717.175,1442.84 782.509,1443.5 847.5,1445.5C 782.167,1445.5 716.833,1445.5 651.5,1445.5C 651.5,1444.83 651.5,1444.17 651.5,1443.5 Z"/></g>
</svg>
